<?xml version="1.0" encoding="utf-8"?>
<svg xmlns="http://www.w3.org/2000/svg" xmlns:xlink="http://www.w3.org/1999/xlink" width="600" height="400" viewBox="0 0 2400 1600">
<defs>
  <clipPath id="clip970">
    <rect x="0" y="0" width="2400" height="1600"/>
  </clipPath>
</defs>
<path clip-path="url(#clip970)" d="
M0 1600 L2400 1600 L2400 0 L0 0  Z
  " fill="#ffffff" fill-rule="evenodd" fill-opacity="1"/>
<defs>
  <clipPath id="clip971">
    <rect x="480" y="0" width="1681" height="1600"/>
  </clipPath>
</defs>
<path clip-path="url(#clip970)" d="
M250.028 1423.18 L2352.76 1423.18 L2352.76 123.472 L250.028 123.472  Z
  " fill="#ffffff" fill-rule="evenodd" fill-opacity="1"/>
<defs>
  <clipPath id="clip972">
    <rect x="250" y="123" width="2104" height="1301"/>
  </clipPath>
</defs>
<polyline clip-path="url(#clip972)" style="stroke:#000000; stroke-linecap:butt; stroke-linejoin:round; stroke-width:2; stroke-opacity:0.1; fill:none" points="
  602.255,1423.18 602.255,123.472 
  "/>
<polyline clip-path="url(#clip972)" style="stroke:#000000; stroke-linecap:butt; stroke-linejoin:round; stroke-width:2; stroke-opacity:0.1; fill:none" points="
  964.725,1423.18 964.725,123.472 
  "/>
<polyline clip-path="url(#clip972)" style="stroke:#000000; stroke-linecap:butt; stroke-linejoin:round; stroke-width:2; stroke-opacity:0.1; fill:none" points="
  1327.19,1423.18 1327.19,123.472 
  "/>
<polyline clip-path="url(#clip972)" style="stroke:#000000; stroke-linecap:butt; stroke-linejoin:round; stroke-width:2; stroke-opacity:0.1; fill:none" points="
  1689.66,1423.18 1689.66,123.472 
  "/>
<polyline clip-path="url(#clip972)" style="stroke:#000000; stroke-linecap:butt; stroke-linejoin:round; stroke-width:2; stroke-opacity:0.1; fill:none" points="
  2052.13,1423.18 2052.13,123.472 
  "/>
<polyline clip-path="url(#clip970)" style="stroke:#000000; stroke-linecap:butt; stroke-linejoin:round; stroke-width:4; stroke-opacity:1; fill:none" points="
  250.028,1423.18 2352.76,1423.18 
  "/>
<polyline clip-path="url(#clip970)" style="stroke:#000000; stroke-linecap:butt; stroke-linejoin:round; stroke-width:4; stroke-opacity:1; fill:none" points="
  602.255,1423.18 602.255,1404.28 
  "/>
<polyline clip-path="url(#clip970)" style="stroke:#000000; stroke-linecap:butt; stroke-linejoin:round; stroke-width:4; stroke-opacity:1; fill:none" points="
  964.725,1423.18 964.725,1404.28 
  "/>
<polyline clip-path="url(#clip970)" style="stroke:#000000; stroke-linecap:butt; stroke-linejoin:round; stroke-width:4; stroke-opacity:1; fill:none" points="
  1327.19,1423.18 1327.19,1404.28 
  "/>
<polyline clip-path="url(#clip970)" style="stroke:#000000; stroke-linecap:butt; stroke-linejoin:round; stroke-width:4; stroke-opacity:1; fill:none" points="
  1689.66,1423.18 1689.66,1404.28 
  "/>
<polyline clip-path="url(#clip970)" style="stroke:#000000; stroke-linecap:butt; stroke-linejoin:round; stroke-width:4; stroke-opacity:1; fill:none" points="
  2052.13,1423.18 2052.13,1404.28 
  "/>
<path clip-path="url(#clip970)" d="M581.029 1481.64 L597.348 1481.64 L597.348 1485.58 L575.404 1485.58 L575.404 1481.64 Q578.066 1478.89 582.649 1474.26 Q587.255 1469.61 588.436 1468.27 Q590.681 1465.74 591.561 1464.01 Q592.464 1462.25 592.464 1460.56 Q592.464 1457.8 590.519 1456.07 Q588.598 1454.33 585.496 1454.33 Q583.297 1454.33 580.843 1455.09 Q578.413 1455.86 575.635 1457.41 L575.635 1452.69 Q578.459 1451.55 580.913 1450.97 Q583.367 1450.39 585.404 1450.39 Q590.774 1450.39 593.968 1453.08 Q597.163 1455.77 597.163 1460.26 Q597.163 1462.39 596.353 1464.31 Q595.566 1466.2 593.459 1468.8 Q592.88 1469.47 589.779 1472.69 Q586.677 1475.88 581.029 1481.64 Z" fill="#000000" fill-rule="evenodd" fill-opacity="1" /><path clip-path="url(#clip970)" d="M617.163 1454.1 Q613.552 1454.1 611.723 1457.66 Q609.917 1461.2 609.917 1468.33 Q609.917 1475.44 611.723 1479.01 Q613.552 1482.55 617.163 1482.55 Q620.797 1482.55 622.602 1479.01 Q624.431 1475.44 624.431 1468.33 Q624.431 1461.2 622.602 1457.66 Q620.797 1454.1 617.163 1454.1 M617.163 1450.39 Q622.973 1450.39 626.028 1455 Q629.107 1459.58 629.107 1468.33 Q629.107 1477.06 626.028 1481.67 Q622.973 1486.25 617.163 1486.25 Q611.353 1486.25 608.274 1481.67 Q605.218 1477.06 605.218 1468.33 Q605.218 1459.58 608.274 1455 Q611.353 1450.39 617.163 1450.39 Z" fill="#000000" fill-rule="evenodd" fill-opacity="1" /><path clip-path="url(#clip970)" d="M953.567 1466.95 Q956.924 1467.66 958.799 1469.93 Q960.697 1472.2 960.697 1475.53 Q960.697 1480.65 957.178 1483.45 Q953.66 1486.25 947.178 1486.25 Q945.003 1486.25 942.688 1485.81 Q940.396 1485.39 937.942 1484.54 L937.942 1480.02 Q939.887 1481.16 942.202 1481.74 Q944.516 1482.32 947.04 1482.32 Q951.438 1482.32 953.729 1480.58 Q956.044 1478.84 956.044 1475.53 Q956.044 1472.48 953.891 1470.77 Q951.762 1469.03 947.942 1469.03 L943.915 1469.03 L943.915 1465.19 L948.128 1465.19 Q951.577 1465.19 953.405 1463.82 Q955.234 1462.43 955.234 1459.84 Q955.234 1457.18 953.336 1455.77 Q951.461 1454.33 947.942 1454.33 Q946.021 1454.33 943.822 1454.75 Q941.623 1455.16 938.984 1456.04 L938.984 1451.88 Q941.646 1451.14 943.961 1450.77 Q946.299 1450.39 948.359 1450.39 Q953.683 1450.39 956.785 1452.83 Q959.887 1455.23 959.887 1459.35 Q959.887 1462.22 958.243 1464.21 Q956.6 1466.18 953.567 1466.95 Z" fill="#000000" fill-rule="evenodd" fill-opacity="1" /><path clip-path="url(#clip970)" d="M979.563 1454.1 Q975.951 1454.1 974.123 1457.66 Q972.317 1461.2 972.317 1468.33 Q972.317 1475.44 974.123 1479.01 Q975.951 1482.55 979.563 1482.55 Q983.197 1482.55 985.002 1479.01 Q986.831 1475.44 986.831 1468.33 Q986.831 1461.2 985.002 1457.66 Q983.197 1454.1 979.563 1454.1 M979.563 1450.39 Q985.373 1450.39 988.428 1455 Q991.507 1459.58 991.507 1468.33 Q991.507 1477.06 988.428 1481.67 Q985.373 1486.25 979.563 1486.25 Q973.752 1486.25 970.674 1481.67 Q967.618 1477.06 967.618 1468.33 Q967.618 1459.58 970.674 1455 Q973.752 1450.39 979.563 1450.39 Z" fill="#000000" fill-rule="evenodd" fill-opacity="1" /><path clip-path="url(#clip970)" d="M1315.37 1455.09 L1303.56 1473.54 L1315.37 1473.54 L1315.37 1455.09 M1314.14 1451.02 L1320.02 1451.02 L1320.02 1473.54 L1324.95 1473.54 L1324.95 1477.43 L1320.02 1477.43 L1320.02 1485.58 L1315.37 1485.58 L1315.37 1477.43 L1299.76 1477.43 L1299.76 1472.92 L1314.14 1451.02 Z" fill="#000000" fill-rule="evenodd" fill-opacity="1" /><path clip-path="url(#clip970)" d="M1342.68 1454.1 Q1339.07 1454.1 1337.24 1457.66 Q1335.43 1461.2 1335.43 1468.33 Q1335.43 1475.44 1337.24 1479.01 Q1339.07 1482.55 1342.68 1482.55 Q1346.31 1482.55 1348.12 1479.01 Q1349.95 1475.44 1349.95 1468.33 Q1349.95 1461.2 1348.12 1457.66 Q1346.31 1454.1 1342.68 1454.1 M1342.68 1450.39 Q1348.49 1450.39 1351.55 1455 Q1354.62 1459.58 1354.62 1468.33 Q1354.62 1477.06 1351.55 1481.67 Q1348.49 1486.25 1342.68 1486.25 Q1336.87 1486.25 1333.79 1481.67 Q1330.74 1477.06 1330.74 1468.33 Q1330.74 1459.58 1333.79 1455 Q1336.87 1450.39 1342.68 1450.39 Z" fill="#000000" fill-rule="evenodd" fill-opacity="1" /><path clip-path="url(#clip970)" d="M1664.36 1451.02 L1682.72 1451.02 L1682.72 1454.96 L1668.64 1454.96 L1668.64 1463.43 Q1669.66 1463.08 1670.68 1462.92 Q1671.7 1462.73 1672.72 1462.73 Q1678.51 1462.73 1681.89 1465.9 Q1685.27 1469.08 1685.27 1474.49 Q1685.27 1480.07 1681.79 1483.17 Q1678.32 1486.25 1672 1486.25 Q1669.83 1486.25 1667.56 1485.88 Q1665.31 1485.51 1662.9 1484.77 L1662.9 1480.07 Q1664.99 1481.2 1667.21 1481.76 Q1669.43 1482.32 1671.91 1482.32 Q1675.91 1482.32 1678.25 1480.21 Q1680.59 1478.1 1680.59 1474.49 Q1680.59 1470.88 1678.25 1468.77 Q1675.91 1466.67 1671.91 1466.67 Q1670.03 1466.67 1668.16 1467.08 Q1666.31 1467.5 1664.36 1468.38 L1664.36 1451.02 Z" fill="#000000" fill-rule="evenodd" fill-opacity="1" /><path clip-path="url(#clip970)" d="M1704.48 1454.1 Q1700.87 1454.1 1699.04 1457.66 Q1697.23 1461.2 1697.23 1468.33 Q1697.23 1475.44 1699.04 1479.01 Q1700.87 1482.55 1704.48 1482.55 Q1708.11 1482.55 1709.92 1479.01 Q1711.75 1475.44 1711.75 1468.33 Q1711.75 1461.2 1709.92 1457.66 Q1708.11 1454.1 1704.48 1454.1 M1704.48 1450.39 Q1710.29 1450.39 1713.34 1455 Q1716.42 1459.58 1716.42 1468.33 Q1716.42 1477.06 1713.34 1481.67 Q1710.29 1486.25 1704.48 1486.25 Q1698.67 1486.25 1695.59 1481.67 Q1692.53 1477.06 1692.53 1468.33 Q1692.53 1459.58 1695.59 1455 Q1698.67 1450.39 1704.48 1450.39 Z" fill="#000000" fill-rule="evenodd" fill-opacity="1" /><path clip-path="url(#clip970)" d="M2037.54 1466.44 Q2034.39 1466.44 2032.54 1468.59 Q2030.71 1470.74 2030.71 1474.49 Q2030.71 1478.22 2032.54 1480.39 Q2034.39 1482.55 2037.54 1482.55 Q2040.69 1482.55 2042.51 1480.39 Q2044.37 1478.22 2044.37 1474.49 Q2044.37 1470.74 2042.51 1468.59 Q2040.69 1466.44 2037.54 1466.44 M2046.82 1451.78 L2046.82 1456.04 Q2045.06 1455.21 2043.26 1454.77 Q2041.47 1454.33 2039.71 1454.33 Q2035.08 1454.33 2032.63 1457.45 Q2030.2 1460.58 2029.85 1466.9 Q2031.22 1464.89 2033.28 1463.82 Q2035.34 1462.73 2037.82 1462.73 Q2043.02 1462.73 2046.03 1465.9 Q2049.07 1469.05 2049.07 1474.49 Q2049.07 1479.82 2045.92 1483.03 Q2042.77 1486.25 2037.54 1486.25 Q2031.54 1486.25 2028.37 1481.67 Q2025.2 1477.06 2025.2 1468.33 Q2025.2 1460.14 2029.09 1455.28 Q2032.98 1450.39 2039.53 1450.39 Q2041.29 1450.39 2043.07 1450.74 Q2044.88 1451.09 2046.82 1451.78 Z" fill="#000000" fill-rule="evenodd" fill-opacity="1" /><path clip-path="url(#clip970)" d="M2067.12 1454.1 Q2063.51 1454.1 2061.68 1457.66 Q2059.88 1461.2 2059.88 1468.33 Q2059.88 1475.44 2061.68 1479.01 Q2063.51 1482.55 2067.12 1482.55 Q2070.76 1482.55 2072.56 1479.01 Q2074.39 1475.44 2074.39 1468.33 Q2074.39 1461.2 2072.56 1457.66 Q2070.76 1454.1 2067.12 1454.1 M2067.12 1450.39 Q2072.93 1450.39 2075.99 1455 Q2079.07 1459.58 2079.07 1468.33 Q2079.07 1477.06 2075.99 1481.67 Q2072.93 1486.25 2067.12 1486.25 Q2061.31 1486.25 2058.23 1481.67 Q2055.18 1477.06 2055.18 1468.33 Q2055.18 1459.58 2058.23 1455 Q2061.31 1450.39 2067.12 1450.39 Z" fill="#000000" fill-rule="evenodd" fill-opacity="1" /><path clip-path="url(#clip970)" d="M962.593 1532.4 L969.023 1532.4 L969.023 1579.92 L962.593 1579.92 L962.593 1532.4 Z" fill="#000000" fill-rule="evenodd" fill-opacity="1" /><path clip-path="url(#clip970)" d="M1011.2 1558.41 L1011.2 1579.92 L1005.34 1579.92 L1005.34 1558.6 Q1005.34 1553.54 1003.37 1551.02 Q1001.39 1548.51 997.445 1548.51 Q992.703 1548.51 989.966 1551.53 Q987.228 1554.56 987.228 1559.78 L987.228 1579.92 L981.34 1579.92 L981.34 1544.28 L987.228 1544.28 L987.228 1549.81 Q989.329 1546.6 992.162 1545.01 Q995.026 1543.42 998.75 1543.42 Q1004.89 1543.42 1008.04 1547.24 Q1011.2 1551.02 1011.2 1558.41 Z" fill="#000000" fill-rule="evenodd" fill-opacity="1" /><path clip-path="url(#clip970)" d="M1028.67 1534.15 L1028.67 1544.28 L1040.73 1544.28 L1040.73 1548.83 L1028.67 1548.83 L1028.67 1568.18 Q1028.67 1572.54 1029.85 1573.78 Q1031.06 1575.02 1034.72 1575.02 L1040.73 1575.02 L1040.73 1579.92 L1034.72 1579.92 Q1027.94 1579.92 1025.36 1577.41 Q1022.78 1574.86 1022.78 1568.18 L1022.78 1548.83 L1018.48 1548.83 L1018.48 1544.28 L1022.78 1544.28 L1022.78 1534.15 L1028.67 1534.15 Z" fill="#000000" fill-rule="evenodd" fill-opacity="1" /><path clip-path="url(#clip970)" d="M1078.93 1560.64 L1078.93 1563.5 L1052 1563.5 Q1052.38 1569.55 1055.63 1572.73 Q1058.91 1575.88 1064.73 1575.88 Q1068.1 1575.88 1071.26 1575.05 Q1074.44 1574.23 1077.56 1572.57 L1077.56 1578.11 Q1074.41 1579.45 1071.1 1580.15 Q1067.79 1580.85 1064.38 1580.85 Q1055.85 1580.85 1050.85 1575.88 Q1045.89 1570.92 1045.89 1562.45 Q1045.89 1553.7 1050.6 1548.57 Q1055.34 1543.42 1063.36 1543.42 Q1070.56 1543.42 1074.73 1548.06 Q1078.93 1552.68 1078.93 1560.64 M1073.07 1558.92 Q1073.01 1554.11 1070.36 1551.25 Q1067.75 1548.38 1063.43 1548.38 Q1058.52 1548.38 1055.56 1551.15 Q1052.64 1553.92 1052.19 1558.95 L1073.07 1558.92 Z" fill="#000000" fill-rule="evenodd" fill-opacity="1" /><path clip-path="url(#clip970)" d="M1109.2 1549.75 Q1108.21 1549.18 1107.03 1548.92 Q1105.89 1548.64 1104.48 1548.64 Q1099.52 1548.64 1096.85 1551.88 Q1094.2 1555.1 1094.2 1561.15 L1094.2 1579.92 L1088.32 1579.92 L1088.32 1544.28 L1094.2 1544.28 L1094.2 1549.81 Q1096.05 1546.57 1099.01 1545.01 Q1101.97 1543.42 1106.2 1543.42 Q1106.81 1543.42 1107.54 1543.51 Q1108.27 1543.58 1109.16 1543.73 L1109.2 1549.75 Z" fill="#000000" fill-rule="evenodd" fill-opacity="1" /><path clip-path="url(#clip970)" d="M1115.34 1544.28 L1121.19 1544.28 L1121.19 1579.92 L1115.34 1579.92 L1115.34 1544.28 M1115.34 1530.4 L1121.19 1530.4 L1121.19 1537.81 L1115.34 1537.81 L1115.34 1530.4 Z" fill="#000000" fill-rule="evenodd" fill-opacity="1" /><path clip-path="url(#clip970)" d="M1149.65 1562 Q1142.55 1562 1139.81 1563.63 Q1137.08 1565.25 1137.08 1569.17 Q1137.08 1572.28 1139.11 1574.13 Q1141.18 1575.95 1144.72 1575.95 Q1149.59 1575.95 1152.51 1572.51 Q1155.47 1569.04 1155.47 1563.31 L1155.47 1562 L1149.65 1562 M1161.33 1559.59 L1161.33 1579.92 L1155.47 1579.92 L1155.47 1574.51 Q1153.47 1577.76 1150.48 1579.32 Q1147.49 1580.85 1143.16 1580.85 Q1137.68 1580.85 1134.44 1577.79 Q1131.22 1574.7 1131.22 1569.55 Q1131.22 1563.53 1135.23 1560.48 Q1139.27 1557.42 1147.26 1557.42 L1155.47 1557.42 L1155.47 1556.85 Q1155.47 1552.81 1152.8 1550.61 Q1150.16 1548.38 1145.35 1548.38 Q1142.3 1548.38 1139.4 1549.11 Q1136.5 1549.85 1133.83 1551.31 L1133.83 1545.9 Q1137.05 1544.66 1140.07 1544.05 Q1143.09 1543.42 1145.96 1543.42 Q1153.69 1543.42 1157.51 1547.43 Q1161.33 1551.44 1161.33 1559.59 Z" fill="#000000" fill-rule="evenodd" fill-opacity="1" /><path clip-path="url(#clip970)" d="M1229.95 1536.06 L1229.95 1542.84 Q1226.71 1539.82 1223.01 1538.32 Q1219.35 1536.83 1215.22 1536.83 Q1207.07 1536.83 1202.74 1541.83 Q1198.41 1546.79 1198.41 1556.21 Q1198.41 1565.6 1202.74 1570.6 Q1207.07 1575.56 1215.22 1575.56 Q1219.35 1575.56 1223.01 1574.07 Q1226.71 1572.57 1229.95 1569.55 L1229.95 1576.26 Q1226.58 1578.56 1222.79 1579.7 Q1219.04 1580.85 1214.83 1580.85 Q1204.04 1580.85 1197.84 1574.26 Q1191.63 1567.64 1191.63 1556.21 Q1191.63 1544.75 1197.84 1538.16 Q1204.04 1531.54 1214.83 1531.54 Q1219.1 1531.54 1222.86 1532.69 Q1226.64 1533.8 1229.95 1536.06 Z" fill="#000000" fill-rule="evenodd" fill-opacity="1" /><path clip-path="url(#clip970)" d="M1253.44 1548.38 Q1248.73 1548.38 1245.99 1552.07 Q1243.26 1555.73 1243.26 1562.13 Q1243.26 1568.53 1245.96 1572.22 Q1248.7 1575.88 1253.44 1575.88 Q1258.12 1575.88 1260.86 1572.19 Q1263.6 1568.5 1263.6 1562.13 Q1263.6 1555.8 1260.86 1552.11 Q1258.12 1548.38 1253.44 1548.38 M1253.44 1543.42 Q1261.08 1543.42 1265.44 1548.38 Q1269.8 1553.35 1269.8 1562.13 Q1269.8 1570.88 1265.44 1575.88 Q1261.08 1580.85 1253.44 1580.85 Q1245.77 1580.85 1241.41 1575.88 Q1237.08 1570.88 1237.08 1562.13 Q1237.08 1553.35 1241.41 1548.38 Q1245.77 1543.42 1253.44 1543.42 Z" fill="#000000" fill-rule="evenodd" fill-opacity="1" /><path clip-path="url(#clip970)" d="M1302.24 1545.33 L1302.24 1550.86 Q1299.75 1549.59 1297.08 1548.95 Q1294.41 1548.32 1291.54 1548.32 Q1287.18 1548.32 1284.98 1549.65 Q1282.82 1550.99 1282.82 1553.67 Q1282.82 1555.7 1284.38 1556.88 Q1285.94 1558.03 1290.65 1559.08 L1292.66 1559.52 Q1298.89 1560.86 1301.5 1563.31 Q1304.15 1565.73 1304.15 1570.09 Q1304.15 1575.05 1300.2 1577.95 Q1296.28 1580.85 1289.41 1580.85 Q1286.54 1580.85 1283.42 1580.27 Q1280.34 1579.73 1276.9 1578.62 L1276.9 1572.57 Q1280.15 1574.26 1283.3 1575.12 Q1286.45 1575.95 1289.54 1575.95 Q1293.67 1575.95 1295.9 1574.54 Q1298.13 1573.11 1298.13 1570.53 Q1298.13 1568.15 1296.51 1566.87 Q1294.91 1565.6 1289.47 1564.42 L1287.44 1563.95 Q1281.99 1562.8 1279.57 1560.44 Q1277.15 1558.06 1277.15 1553.92 Q1277.15 1548.89 1280.72 1546.15 Q1284.28 1543.42 1290.84 1543.42 Q1294.09 1543.42 1296.95 1543.89 Q1299.82 1544.37 1302.24 1545.33 Z" fill="#000000" fill-rule="evenodd" fill-opacity="1" /><path clip-path="url(#clip970)" d="M1319.26 1534.15 L1319.26 1544.28 L1331.33 1544.28 L1331.33 1548.83 L1319.26 1548.83 L1319.26 1568.18 Q1319.26 1572.54 1320.44 1573.78 Q1321.65 1575.02 1325.31 1575.02 L1331.33 1575.02 L1331.33 1579.92 L1325.31 1579.92 Q1318.53 1579.92 1315.95 1577.41 Q1313.38 1574.86 1313.38 1568.18 L1313.38 1548.83 L1309.08 1548.83 L1309.08 1544.28 L1313.38 1544.28 L1313.38 1534.15 L1319.26 1534.15 Z" fill="#000000" fill-rule="evenodd" fill-opacity="1" /><path clip-path="url(#clip970)" d="M1361.75 1545.33 L1361.75 1550.86 Q1359.27 1549.59 1356.6 1548.95 Q1353.93 1548.32 1351.06 1548.32 Q1346.7 1548.32 1344.5 1549.65 Q1342.34 1550.99 1342.34 1553.67 Q1342.34 1555.7 1343.9 1556.88 Q1345.46 1558.03 1350.17 1559.08 L1352.17 1559.52 Q1358.41 1560.86 1361.02 1563.31 Q1363.66 1565.73 1363.66 1570.09 Q1363.66 1575.05 1359.72 1577.95 Q1355.8 1580.85 1348.93 1580.85 Q1346.06 1580.85 1342.94 1580.27 Q1339.86 1579.73 1336.42 1578.62 L1336.42 1572.57 Q1339.67 1574.26 1342.82 1575.12 Q1345.97 1575.95 1349.06 1575.95 Q1353.19 1575.95 1355.42 1574.54 Q1357.65 1573.11 1357.65 1570.53 Q1357.65 1568.15 1356.03 1566.87 Q1354.43 1565.6 1348.99 1564.42 L1346.95 1563.95 Q1341.51 1562.8 1339.09 1560.44 Q1336.67 1558.06 1336.67 1553.92 Q1336.67 1548.89 1340.24 1546.15 Q1343.8 1543.42 1350.36 1543.42 Q1353.61 1543.42 1356.47 1543.89 Q1359.34 1544.37 1361.75 1545.33 Z" fill="#000000" fill-rule="evenodd" fill-opacity="1" /><path clip-path="url(#clip970)" d="M1407.78 1530.46 Q1403.51 1537.78 1401.45 1544.94 Q1399.38 1552.11 1399.38 1559.46 Q1399.38 1566.81 1401.45 1574.04 Q1403.55 1581.23 1407.78 1588.52 L1402.69 1588.52 Q1397.91 1581.04 1395.52 1573.81 Q1393.17 1566.59 1393.17 1559.46 Q1393.17 1552.36 1395.52 1545.17 Q1397.88 1537.97 1402.69 1530.46 L1407.78 1530.46 Z" fill="#000000" fill-rule="evenodd" fill-opacity="1" /><path clip-path="url(#clip970)" d="M1435.02 1589.5 L1431.84 1589.5 L1431.81 1579.92 Q1428.47 1579.86 1425.13 1579.16 Q1421.78 1578.43 1418.41 1577 L1418.41 1571.27 Q1421.66 1573.3 1424.97 1574.35 Q1428.31 1575.37 1431.84 1575.4 L1431.84 1560.89 Q1424.81 1559.74 1421.59 1557.01 Q1418.41 1554.27 1418.41 1549.5 Q1418.41 1544.31 1421.88 1541.32 Q1425.35 1538.32 1431.84 1537.88 L1431.84 1530.4 L1435.02 1530.4 L1435.02 1537.78 Q1437.98 1537.91 1440.75 1538.42 Q1443.52 1538.9 1446.16 1539.76 L1446.16 1545.33 Q1443.52 1543.99 1440.72 1543.26 Q1437.95 1542.53 1435.02 1542.4 L1435.02 1555.99 Q1442.25 1557.1 1445.65 1559.97 Q1449.06 1562.83 1449.06 1567.8 Q1449.06 1573.18 1445.43 1576.3 Q1441.84 1579.38 1435.02 1579.86 L1435.02 1589.5 M1431.84 1555.42 L1431.84 1542.37 Q1428.15 1542.78 1426.21 1544.47 Q1424.27 1546.15 1424.27 1548.95 Q1424.27 1551.69 1426.05 1553.22 Q1427.86 1554.75 1431.84 1555.42 M1435.02 1561.53 L1435.02 1575.31 Q1439.07 1574.77 1441.1 1573.02 Q1443.17 1571.27 1443.17 1568.4 Q1443.17 1565.6 1441.2 1563.95 Q1439.26 1562.29 1435.02 1561.53 Z" fill="#000000" fill-rule="evenodd" fill-opacity="1" /><path clip-path="url(#clip970)" d="M1462.56 1574.51 L1473.06 1574.51 L1473.06 1538.26 L1461.63 1540.55 L1461.63 1534.7 L1473 1532.4 L1479.42 1532.4 L1479.42 1574.51 L1489.93 1574.51 L1489.93 1579.92 L1462.56 1579.92 L1462.56 1574.51 Z" fill="#000000" fill-rule="evenodd" fill-opacity="1" /><path clip-path="url(#clip970)" d="M1516.66 1536.64 Q1511.7 1536.64 1509.18 1541.54 Q1506.7 1546.41 1506.7 1556.21 Q1506.7 1565.98 1509.18 1570.88 Q1511.7 1575.75 1516.66 1575.75 Q1521.66 1575.75 1524.14 1570.88 Q1526.66 1565.98 1526.66 1556.21 Q1526.66 1546.41 1524.14 1541.54 Q1521.66 1536.64 1516.66 1536.64 M1516.66 1531.54 Q1524.65 1531.54 1528.85 1537.88 Q1533.09 1544.18 1533.09 1556.21 Q1533.09 1568.21 1528.85 1574.54 Q1524.65 1580.85 1516.66 1580.85 Q1508.68 1580.85 1504.44 1574.54 Q1500.24 1568.21 1500.24 1556.21 Q1500.24 1544.18 1504.44 1537.88 Q1508.68 1531.54 1516.66 1531.54 Z" fill="#000000" fill-rule="evenodd" fill-opacity="1" /><path clip-path="url(#clip970)" d="M1558.14 1536.64 Q1553.17 1536.64 1550.66 1541.54 Q1548.17 1546.41 1548.17 1556.21 Q1548.17 1565.98 1550.66 1570.88 Q1553.17 1575.75 1558.14 1575.75 Q1563.13 1575.75 1565.62 1570.88 Q1568.13 1565.98 1568.13 1556.21 Q1568.13 1546.41 1565.62 1541.54 Q1563.13 1536.64 1558.14 1536.64 M1558.14 1531.54 Q1566.13 1531.54 1570.33 1537.88 Q1574.56 1544.18 1574.56 1556.21 Q1574.56 1568.21 1570.33 1574.54 Q1566.13 1580.85 1558.14 1580.85 Q1550.15 1580.85 1545.91 1574.54 Q1541.71 1568.21 1541.71 1556.21 Q1541.71 1544.18 1545.91 1537.88 Q1550.15 1531.54 1558.14 1531.54 Z" fill="#000000" fill-rule="evenodd" fill-opacity="1" /><path clip-path="url(#clip970)" d="M1599.61 1536.64 Q1594.64 1536.64 1592.13 1541.54 Q1589.65 1546.41 1589.65 1556.21 Q1589.65 1565.98 1592.13 1570.88 Q1594.64 1575.75 1599.61 1575.75 Q1604.61 1575.75 1607.09 1570.88 Q1609.6 1565.98 1609.6 1556.21 Q1609.6 1546.41 1607.09 1541.54 Q1604.61 1536.64 1599.61 1536.64 M1599.61 1531.54 Q1607.6 1531.54 1611.8 1537.88 Q1616.03 1544.18 1616.03 1556.21 Q1616.03 1568.21 1611.8 1574.54 Q1607.6 1580.85 1599.61 1580.85 Q1591.62 1580.85 1587.39 1574.54 Q1583.19 1568.21 1583.19 1556.21 Q1583.19 1544.18 1587.39 1537.88 Q1591.62 1531.54 1599.61 1531.54 Z" fill="#000000" fill-rule="evenodd" fill-opacity="1" /><path clip-path="url(#clip970)" d="M1625.58 1530.46 L1630.67 1530.46 Q1635.45 1537.97 1637.8 1545.17 Q1640.19 1552.36 1640.19 1559.46 Q1640.19 1566.59 1637.8 1573.81 Q1635.45 1581.04 1630.67 1588.52 L1625.58 1588.52 Q1629.81 1581.23 1631.88 1574.04 Q1633.98 1566.81 1633.98 1559.46 Q1633.98 1552.11 1631.88 1544.94 Q1629.81 1537.78 1625.58 1530.46 Z" fill="#000000" fill-rule="evenodd" fill-opacity="1" /><polyline clip-path="url(#clip972)" style="stroke:#000000; stroke-linecap:butt; stroke-linejoin:round; stroke-width:2; stroke-opacity:0.1; fill:none" points="
  250.028,1386.4 2352.76,1386.4 
  "/>
<polyline clip-path="url(#clip972)" style="stroke:#000000; stroke-linecap:butt; stroke-linejoin:round; stroke-width:2; stroke-opacity:0.1; fill:none" points="
  250.028,1158.13 2352.76,1158.13 
  "/>
<polyline clip-path="url(#clip972)" style="stroke:#000000; stroke-linecap:butt; stroke-linejoin:round; stroke-width:2; stroke-opacity:0.1; fill:none" points="
  250.028,929.854 2352.76,929.854 
  "/>
<polyline clip-path="url(#clip972)" style="stroke:#000000; stroke-linecap:butt; stroke-linejoin:round; stroke-width:2; stroke-opacity:0.1; fill:none" points="
  250.028,701.579 2352.76,701.579 
  "/>
<polyline clip-path="url(#clip972)" style="stroke:#000000; stroke-linecap:butt; stroke-linejoin:round; stroke-width:2; stroke-opacity:0.1; fill:none" points="
  250.028,473.305 2352.76,473.305 
  "/>
<polyline clip-path="url(#clip972)" style="stroke:#000000; stroke-linecap:butt; stroke-linejoin:round; stroke-width:2; stroke-opacity:0.1; fill:none" points="
  250.028,245.03 2352.76,245.03 
  "/>
<polyline clip-path="url(#clip970)" style="stroke:#000000; stroke-linecap:butt; stroke-linejoin:round; stroke-width:4; stroke-opacity:1; fill:none" points="
  250.028,1423.18 250.028,123.472 
  "/>
<polyline clip-path="url(#clip970)" style="stroke:#000000; stroke-linecap:butt; stroke-linejoin:round; stroke-width:4; stroke-opacity:1; fill:none" points="
  250.028,1386.4 268.926,1386.4 
  "/>
<polyline clip-path="url(#clip970)" style="stroke:#000000; stroke-linecap:butt; stroke-linejoin:round; stroke-width:4; stroke-opacity:1; fill:none" points="
  250.028,1158.13 268.926,1158.13 
  "/>
<polyline clip-path="url(#clip970)" style="stroke:#000000; stroke-linecap:butt; stroke-linejoin:round; stroke-width:4; stroke-opacity:1; fill:none" points="
  250.028,929.854 268.926,929.854 
  "/>
<polyline clip-path="url(#clip970)" style="stroke:#000000; stroke-linecap:butt; stroke-linejoin:round; stroke-width:4; stroke-opacity:1; fill:none" points="
  250.028,701.579 268.926,701.579 
  "/>
<polyline clip-path="url(#clip970)" style="stroke:#000000; stroke-linecap:butt; stroke-linejoin:round; stroke-width:4; stroke-opacity:1; fill:none" points="
  250.028,473.305 268.926,473.305 
  "/>
<polyline clip-path="url(#clip970)" style="stroke:#000000; stroke-linecap:butt; stroke-linejoin:round; stroke-width:4; stroke-opacity:1; fill:none" points="
  250.028,245.03 268.926,245.03 
  "/>
<path clip-path="url(#clip970)" d="M126.691 1372.2 Q123.08 1372.2 121.251 1375.77 Q119.445 1379.31 119.445 1386.44 Q119.445 1393.54 121.251 1397.11 Q123.08 1400.65 126.691 1400.65 Q130.325 1400.65 132.13 1397.11 Q133.959 1393.54 133.959 1386.44 Q133.959 1379.31 132.13 1375.77 Q130.325 1372.2 126.691 1372.2 M126.691 1368.5 Q132.501 1368.5 135.556 1373.1 Q138.635 1377.69 138.635 1386.44 Q138.635 1395.16 135.556 1399.77 Q132.501 1404.35 126.691 1404.35 Q120.88 1404.35 117.802 1399.77 Q114.746 1395.16 114.746 1386.44 Q114.746 1377.69 117.802 1373.1 Q120.88 1368.5 126.691 1368.5 Z" fill="#000000" fill-rule="evenodd" fill-opacity="1" /><path clip-path="url(#clip970)" d="M146.853 1397.8 L151.737 1397.8 L151.737 1403.68 L146.853 1403.68 L146.853 1397.8 Z" fill="#000000" fill-rule="evenodd" fill-opacity="1" /><path clip-path="url(#clip970)" d="M171.922 1372.2 Q168.311 1372.2 166.482 1375.77 Q164.677 1379.31 164.677 1386.44 Q164.677 1393.54 166.482 1397.11 Q168.311 1400.65 171.922 1400.65 Q175.556 1400.65 177.362 1397.11 Q179.19 1393.54 179.19 1386.44 Q179.19 1379.31 177.362 1375.77 Q175.556 1372.2 171.922 1372.2 M171.922 1368.5 Q177.732 1368.5 180.788 1373.1 Q183.866 1377.69 183.866 1386.44 Q183.866 1395.16 180.788 1399.77 Q177.732 1404.35 171.922 1404.35 Q166.112 1404.35 163.033 1399.77 Q159.978 1395.16 159.978 1386.44 Q159.978 1377.69 163.033 1373.1 Q166.112 1368.5 171.922 1368.5 Z" fill="#000000" fill-rule="evenodd" fill-opacity="1" /><path clip-path="url(#clip970)" d="M202.084 1372.2 Q198.473 1372.2 196.644 1375.77 Q194.838 1379.31 194.838 1386.44 Q194.838 1393.54 196.644 1397.11 Q198.473 1400.65 202.084 1400.65 Q205.718 1400.65 207.524 1397.11 Q209.352 1393.54 209.352 1386.44 Q209.352 1379.31 207.524 1375.77 Q205.718 1372.2 202.084 1372.2 M202.084 1368.5 Q207.894 1368.5 210.949 1373.1 Q214.028 1377.69 214.028 1386.44 Q214.028 1395.16 210.949 1399.77 Q207.894 1404.35 202.084 1404.35 Q196.274 1404.35 193.195 1399.77 Q190.139 1395.16 190.139 1386.44 Q190.139 1377.69 193.195 1373.1 Q196.274 1368.5 202.084 1368.5 Z" fill="#000000" fill-rule="evenodd" fill-opacity="1" /><path clip-path="url(#clip970)" d="M127.917 1143.93 Q124.306 1143.93 122.478 1147.49 Q120.672 1151.03 120.672 1158.16 Q120.672 1165.27 122.478 1168.83 Q124.306 1172.38 127.917 1172.38 Q131.552 1172.38 133.357 1168.83 Q135.186 1165.27 135.186 1158.16 Q135.186 1151.03 133.357 1147.49 Q131.552 1143.93 127.917 1143.93 M127.917 1140.22 Q133.728 1140.22 136.783 1144.83 Q139.862 1149.41 139.862 1158.16 Q139.862 1166.89 136.783 1171.5 Q133.728 1176.08 127.917 1176.08 Q122.107 1176.08 119.029 1171.5 Q115.973 1166.89 115.973 1158.16 Q115.973 1149.41 119.029 1144.83 Q122.107 1140.22 127.917 1140.22 Z" fill="#000000" fill-rule="evenodd" fill-opacity="1" /><path clip-path="url(#clip970)" d="M148.079 1169.53 L152.964 1169.53 L152.964 1175.41 L148.079 1175.41 L148.079 1169.53 Z" fill="#000000" fill-rule="evenodd" fill-opacity="1" /><path clip-path="url(#clip970)" d="M173.149 1143.93 Q169.538 1143.93 167.709 1147.49 Q165.903 1151.03 165.903 1158.16 Q165.903 1165.27 167.709 1168.83 Q169.538 1172.38 173.149 1172.38 Q176.783 1172.38 178.589 1168.83 Q180.417 1165.27 180.417 1158.16 Q180.417 1151.03 178.589 1147.49 Q176.783 1143.93 173.149 1143.93 M173.149 1140.22 Q178.959 1140.22 182.014 1144.83 Q185.093 1149.41 185.093 1158.16 Q185.093 1166.89 182.014 1171.5 Q178.959 1176.08 173.149 1176.08 Q167.339 1176.08 164.26 1171.5 Q161.204 1166.89 161.204 1158.16 Q161.204 1149.41 164.26 1144.83 Q167.339 1140.22 173.149 1140.22 Z" fill="#000000" fill-rule="evenodd" fill-opacity="1" /><path clip-path="url(#clip970)" d="M194.121 1171.47 L201.76 1171.47 L201.76 1145.11 L193.45 1146.77 L193.45 1142.52 L201.713 1140.85 L206.389 1140.85 L206.389 1171.47 L214.028 1171.47 L214.028 1175.41 L194.121 1175.41 L194.121 1171.47 Z" fill="#000000" fill-rule="evenodd" fill-opacity="1" /><path clip-path="url(#clip970)" d="M128.288 915.653 Q124.677 915.653 122.848 919.217 Q121.043 922.759 121.043 929.889 Q121.043 936.995 122.848 940.56 Q124.677 944.102 128.288 944.102 Q131.922 944.102 133.728 940.56 Q135.556 936.995 135.556 929.889 Q135.556 922.759 133.728 919.217 Q131.922 915.653 128.288 915.653 M128.288 911.949 Q134.098 911.949 137.154 916.555 Q140.232 921.139 140.232 929.889 Q140.232 938.615 137.154 943.222 Q134.098 947.805 128.288 947.805 Q122.478 947.805 119.399 943.222 Q116.343 938.615 116.343 929.889 Q116.343 921.139 119.399 916.555 Q122.478 911.949 128.288 911.949 Z" fill="#000000" fill-rule="evenodd" fill-opacity="1" /><path clip-path="url(#clip970)" d="M148.45 941.254 L153.334 941.254 L153.334 947.134 L148.45 947.134 L148.45 941.254 Z" fill="#000000" fill-rule="evenodd" fill-opacity="1" /><path clip-path="url(#clip970)" d="M173.519 915.653 Q169.908 915.653 168.079 919.217 Q166.274 922.759 166.274 929.889 Q166.274 936.995 168.079 940.56 Q169.908 944.102 173.519 944.102 Q177.153 944.102 178.959 940.56 Q180.788 936.995 180.788 929.889 Q180.788 922.759 178.959 919.217 Q177.153 915.653 173.519 915.653 M173.519 911.949 Q179.329 911.949 182.385 916.555 Q185.463 921.139 185.463 929.889 Q185.463 938.615 182.385 943.222 Q179.329 947.805 173.519 947.805 Q167.709 947.805 164.63 943.222 Q161.575 938.615 161.575 929.889 Q161.575 921.139 164.63 916.555 Q167.709 911.949 173.519 911.949 Z" fill="#000000" fill-rule="evenodd" fill-opacity="1" /><path clip-path="url(#clip970)" d="M197.709 943.199 L214.028 943.199 L214.028 947.134 L192.084 947.134 L192.084 943.199 Q194.746 940.444 199.329 935.815 Q203.936 931.162 205.116 929.819 Q207.362 927.296 208.241 925.56 Q209.144 923.801 209.144 922.111 Q209.144 919.356 207.199 917.62 Q205.278 915.884 202.176 915.884 Q199.977 915.884 197.524 916.648 Q195.093 917.412 192.315 918.963 L192.315 914.241 Q195.139 913.106 197.593 912.528 Q200.047 911.949 202.084 911.949 Q207.454 911.949 210.649 914.634 Q213.843 917.319 213.843 921.81 Q213.843 923.94 213.033 925.861 Q212.246 927.759 210.139 930.352 Q209.561 931.023 206.459 934.24 Q203.357 937.435 197.709 943.199 Z" fill="#000000" fill-rule="evenodd" fill-opacity="1" /><path clip-path="url(#clip970)" d="M127.339 687.378 Q123.728 687.378 121.899 690.943 Q120.093 694.485 120.093 701.614 Q120.093 708.721 121.899 712.285 Q123.728 715.827 127.339 715.827 Q130.973 715.827 132.779 712.285 Q134.607 708.721 134.607 701.614 Q134.607 694.485 132.779 690.943 Q130.973 687.378 127.339 687.378 M127.339 683.674 Q133.149 683.674 136.204 688.281 Q139.283 692.864 139.283 701.614 Q139.283 710.341 136.204 714.947 Q133.149 719.531 127.339 719.531 Q121.529 719.531 118.45 714.947 Q115.394 710.341 115.394 701.614 Q115.394 692.864 118.45 688.281 Q121.529 683.674 127.339 683.674 Z" fill="#000000" fill-rule="evenodd" fill-opacity="1" /><path clip-path="url(#clip970)" d="M147.501 712.98 L152.385 712.98 L152.385 718.859 L147.501 718.859 L147.501 712.98 Z" fill="#000000" fill-rule="evenodd" fill-opacity="1" /><path clip-path="url(#clip970)" d="M172.57 687.378 Q168.959 687.378 167.13 690.943 Q165.325 694.485 165.325 701.614 Q165.325 708.721 167.13 712.285 Q168.959 715.827 172.57 715.827 Q176.204 715.827 178.01 712.285 Q179.839 708.721 179.839 701.614 Q179.839 694.485 178.01 690.943 Q176.204 687.378 172.57 687.378 M172.57 683.674 Q178.38 683.674 181.436 688.281 Q184.514 692.864 184.514 701.614 Q184.514 710.341 181.436 714.947 Q178.38 719.531 172.57 719.531 Q166.76 719.531 163.681 714.947 Q160.626 710.341 160.626 701.614 Q160.626 692.864 163.681 688.281 Q166.76 683.674 172.57 683.674 Z" fill="#000000" fill-rule="evenodd" fill-opacity="1" /><path clip-path="url(#clip970)" d="M206.899 700.225 Q210.255 700.943 212.13 703.211 Q214.028 705.48 214.028 708.813 Q214.028 713.929 210.51 716.73 Q206.991 719.531 200.51 719.531 Q198.334 719.531 196.019 719.091 Q193.727 718.674 191.274 717.818 L191.274 713.304 Q193.218 714.438 195.533 715.017 Q197.848 715.596 200.371 715.596 Q204.769 715.596 207.061 713.859 Q209.375 712.123 209.375 708.813 Q209.375 705.758 207.223 704.045 Q205.093 702.309 201.274 702.309 L197.246 702.309 L197.246 698.466 L201.459 698.466 Q204.908 698.466 206.737 697.1 Q208.565 695.711 208.565 693.119 Q208.565 690.457 206.667 689.045 Q204.792 687.61 201.274 687.61 Q199.352 687.61 197.153 688.026 Q194.954 688.443 192.315 689.322 L192.315 685.156 Q194.977 684.415 197.292 684.045 Q199.63 683.674 201.69 683.674 Q207.014 683.674 210.116 686.105 Q213.218 688.512 213.218 692.633 Q213.218 695.503 211.574 697.494 Q209.931 699.461 206.899 700.225 Z" fill="#000000" fill-rule="evenodd" fill-opacity="1" /><path clip-path="url(#clip970)" d="M126.205 459.104 Q122.593 459.104 120.765 462.668 Q118.959 466.21 118.959 473.34 Q118.959 480.446 120.765 484.011 Q122.593 487.552 126.205 487.552 Q129.839 487.552 131.644 484.011 Q133.473 480.446 133.473 473.34 Q133.473 466.21 131.644 462.668 Q129.839 459.104 126.205 459.104 M126.205 455.4 Q132.015 455.4 135.07 460.006 Q138.149 464.59 138.149 473.34 Q138.149 482.066 135.07 486.673 Q132.015 491.256 126.205 491.256 Q120.394 491.256 117.316 486.673 Q114.26 482.066 114.26 473.34 Q114.26 464.59 117.316 460.006 Q120.394 455.4 126.205 455.4 Z" fill="#000000" fill-rule="evenodd" fill-opacity="1" /><path clip-path="url(#clip970)" d="M146.366 484.705 L151.251 484.705 L151.251 490.585 L146.366 490.585 L146.366 484.705 Z" fill="#000000" fill-rule="evenodd" fill-opacity="1" /><path clip-path="url(#clip970)" d="M171.436 459.104 Q167.825 459.104 165.996 462.668 Q164.19 466.21 164.19 473.34 Q164.19 480.446 165.996 484.011 Q167.825 487.552 171.436 487.552 Q175.07 487.552 176.876 484.011 Q178.704 480.446 178.704 473.34 Q178.704 466.21 176.876 462.668 Q175.07 459.104 171.436 459.104 M171.436 455.4 Q177.246 455.4 180.301 460.006 Q183.38 464.59 183.38 473.34 Q183.38 482.066 180.301 486.673 Q177.246 491.256 171.436 491.256 Q165.626 491.256 162.547 486.673 Q159.491 482.066 159.491 473.34 Q159.491 464.59 162.547 460.006 Q165.626 455.4 171.436 455.4 Z" fill="#000000" fill-rule="evenodd" fill-opacity="1" /><path clip-path="url(#clip970)" d="M204.445 460.099 L192.639 478.548 L204.445 478.548 L204.445 460.099 M203.218 456.025 L209.098 456.025 L209.098 478.548 L214.028 478.548 L214.028 482.437 L209.098 482.437 L209.098 490.585 L204.445 490.585 L204.445 482.437 L188.843 482.437 L188.843 477.923 L203.218 456.025 Z" fill="#000000" fill-rule="evenodd" fill-opacity="1" /><path clip-path="url(#clip970)" d="M127.686 230.829 Q124.075 230.829 122.246 234.394 Q120.441 237.935 120.441 245.065 Q120.441 252.171 122.246 255.736 Q124.075 259.278 127.686 259.278 Q131.32 259.278 133.126 255.736 Q134.954 252.171 134.954 245.065 Q134.954 237.935 133.126 234.394 Q131.32 230.829 127.686 230.829 M127.686 227.125 Q133.496 227.125 136.552 231.732 Q139.63 236.315 139.63 245.065 Q139.63 253.792 136.552 258.398 Q133.496 262.982 127.686 262.982 Q121.876 262.982 118.797 258.398 Q115.742 253.792 115.742 245.065 Q115.742 236.315 118.797 231.732 Q121.876 227.125 127.686 227.125 Z" fill="#000000" fill-rule="evenodd" fill-opacity="1" /><path clip-path="url(#clip970)" d="M147.848 256.431 L152.732 256.431 L152.732 262.31 L147.848 262.31 L147.848 256.431 Z" fill="#000000" fill-rule="evenodd" fill-opacity="1" /><path clip-path="url(#clip970)" d="M172.917 230.829 Q169.306 230.829 167.477 234.394 Q165.672 237.935 165.672 245.065 Q165.672 252.171 167.477 255.736 Q169.306 259.278 172.917 259.278 Q176.551 259.278 178.357 255.736 Q180.186 252.171 180.186 245.065 Q180.186 237.935 178.357 234.394 Q176.551 230.829 172.917 230.829 M172.917 227.125 Q178.727 227.125 181.783 231.732 Q184.862 236.315 184.862 245.065 Q184.862 253.792 181.783 258.398 Q178.727 262.982 172.917 262.982 Q167.107 262.982 164.028 258.398 Q160.973 253.792 160.973 245.065 Q160.973 236.315 164.028 231.732 Q167.107 227.125 172.917 227.125 Z" fill="#000000" fill-rule="evenodd" fill-opacity="1" /><path clip-path="url(#clip970)" d="M193.125 227.75 L211.482 227.75 L211.482 231.685 L197.408 231.685 L197.408 240.158 Q198.426 239.81 199.445 239.648 Q200.463 239.463 201.482 239.463 Q207.269 239.463 210.649 242.634 Q214.028 245.806 214.028 251.222 Q214.028 256.801 210.556 259.903 Q207.084 262.982 200.764 262.982 Q198.588 262.982 196.32 262.611 Q194.075 262.241 191.667 261.5 L191.667 256.801 Q193.75 257.935 195.973 258.491 Q198.195 259.046 200.672 259.046 Q204.676 259.046 207.014 256.94 Q209.352 254.833 209.352 251.222 Q209.352 247.611 207.014 245.505 Q204.676 243.398 200.672 243.398 Q198.797 243.398 196.922 243.815 Q195.07 244.232 193.125 245.111 L193.125 227.75 Z" fill="#000000" fill-rule="evenodd" fill-opacity="1" /><path clip-path="url(#clip970)" d="M14.479 999.611 L14.479 993.723 L43.7294 993.723 L28.3562 976.249 L28.3562 968.769 L45.0344 987.675 L64.0042 967.973 L64.0042 975.612 L46.5939 993.723 L64.0042 993.723 L64.0042 999.611 L14.479 999.611 Z" fill="#000000" fill-rule="evenodd" fill-opacity="1" /><path clip-path="url(#clip970)" d="M44.7161 933.471 L47.5806 933.471 L47.5806 960.398 Q53.6281 960.016 56.8109 956.77 Q59.9619 953.491 59.9619 947.667 Q59.9619 944.293 59.1344 941.142 Q58.3069 937.959 56.6518 934.84 L62.1899 934.84 Q63.5267 937.991 64.227 941.301 Q64.9272 944.611 64.9272 948.017 Q64.9272 956.547 59.9619 961.544 Q54.9967 966.509 46.5303 966.509 Q37.7774 966.509 32.6531 961.799 Q27.4968 957.056 27.4968 949.035 Q27.4968 941.842 32.1438 937.673 Q36.7589 933.471 44.7161 933.471 M42.9973 939.328 Q38.1912 939.391 35.3266 942.033 Q32.4621 944.643 32.4621 948.972 Q32.4621 953.873 35.2312 956.833 Q38.0002 959.762 43.0292 960.207 L42.9973 939.328 Z" fill="#000000" fill-rule="evenodd" fill-opacity="1" /><path clip-path="url(#clip970)" d="M33.8307 903.202 Q33.2578 904.189 33.0032 905.367 Q32.7167 906.512 32.7167 907.913 Q32.7167 912.878 35.9632 915.552 Q39.1779 918.194 45.2253 918.194 L64.0042 918.194 L64.0042 924.082 L28.3562 924.082 L28.3562 918.194 L33.8944 918.194 Q30.6479 916.347 29.0883 913.387 Q27.4968 910.427 27.4968 906.194 Q27.4968 905.589 27.5923 904.857 Q27.656 904.125 27.8151 903.234 L33.8307 903.202 Z" fill="#000000" fill-rule="evenodd" fill-opacity="1" /><path clip-path="url(#clip970)" d="M42.4881 868.573 L64.0042 868.573 L64.0042 874.429 L42.679 874.429 Q37.6183 874.429 35.1038 876.403 Q32.5894 878.376 32.5894 882.323 Q32.5894 887.065 35.6131 889.803 Q38.6368 892.54 43.8567 892.54 L64.0042 892.54 L64.0042 898.428 L28.3562 898.428 L28.3562 892.54 L33.8944 892.54 Q30.6797 890.439 29.0883 887.606 Q27.4968 884.742 27.4968 881.018 Q27.4968 874.875 31.3163 871.724 Q35.1038 868.573 42.4881 868.573 Z" fill="#000000" fill-rule="evenodd" fill-opacity="1" /><path clip-path="url(#clip970)" d="M44.7161 826.4 L47.5806 826.4 L47.5806 853.327 Q53.6281 852.945 56.8109 849.699 Q59.9619 846.42 59.9619 840.596 Q59.9619 837.222 59.1344 834.071 Q58.3069 830.888 56.6518 827.769 L62.1899 827.769 Q63.5267 830.92 64.227 834.23 Q64.9272 837.54 64.9272 840.946 Q64.9272 849.476 59.9619 854.473 Q54.9967 859.438 46.5303 859.438 Q37.7774 859.438 32.6531 854.727 Q27.4968 849.985 27.4968 841.964 Q27.4968 834.771 32.1438 830.601 Q36.7589 826.4 44.7161 826.4 M42.9973 832.257 Q38.1912 832.32 35.3266 834.962 Q32.4621 837.572 32.4621 841.901 Q32.4621 846.802 35.2312 849.762 Q38.0002 852.69 43.0292 853.136 L42.9973 832.257 Z" fill="#000000" fill-rule="evenodd" fill-opacity="1" /><path clip-path="url(#clip970)" d="M14.479 816.788 L14.479 810.931 L64.0042 810.931 L64.0042 816.788 L14.479 816.788 Z" fill="#000000" fill-rule="evenodd" fill-opacity="1" /><path clip-path="url(#clip970)" d="M33.7671 754.499 L14.479 754.499 L14.479 748.643 L64.0042 748.643 L64.0042 754.499 L58.657 754.499 Q61.8398 756.345 63.3994 759.178 Q64.9272 761.979 64.9272 765.926 Q64.9272 772.387 59.771 776.461 Q54.6147 780.503 46.212 780.503 Q37.8093 780.503 32.6531 776.461 Q27.4968 772.387 27.4968 765.926 Q27.4968 761.979 29.0564 759.178 Q30.5842 756.345 33.7671 754.499 M46.212 774.456 Q52.6732 774.456 56.3653 771.814 Q60.0256 769.141 60.0256 764.494 Q60.0256 759.847 56.3653 757.173 Q52.6732 754.499 46.212 754.499 Q39.7508 754.499 36.0905 757.173 Q32.3984 759.847 32.3984 764.494 Q32.3984 769.141 36.0905 771.814 Q39.7508 774.456 46.212 774.456 Z" fill="#000000" fill-rule="evenodd" fill-opacity="1" /><path clip-path="url(#clip970)" d="M44.7161 706.088 L47.5806 706.088 L47.5806 733.015 Q53.6281 732.633 56.8109 729.387 Q59.9619 726.108 59.9619 720.284 Q59.9619 716.91 59.1344 713.759 Q58.3069 710.576 56.6518 707.457 L62.1899 707.457 Q63.5267 710.608 64.227 713.918 Q64.9272 717.228 64.9272 720.634 Q64.9272 729.164 59.9619 734.161 Q54.9967 739.126 46.5303 739.126 Q37.7774 739.126 32.6531 734.416 Q27.4968 729.673 27.4968 721.652 Q27.4968 714.459 32.1438 710.29 Q36.7589 706.088 44.7161 706.088 M42.9973 711.945 Q38.1912 712.008 35.3266 714.65 Q32.4621 717.26 32.4621 721.589 Q32.4621 726.49 35.2312 729.45 Q38.0002 732.379 43.0292 732.824 L42.9973 711.945 Z" fill="#000000" fill-rule="evenodd" fill-opacity="1" /><path clip-path="url(#clip970)" d="M42.4881 666.844 L64.0042 666.844 L64.0042 672.7 L42.679 672.7 Q37.6183 672.7 35.1038 674.673 Q32.5894 676.647 32.5894 680.594 Q32.5894 685.336 35.6131 688.073 Q38.6368 690.811 43.8567 690.811 L64.0042 690.811 L64.0042 696.699 L28.3562 696.699 L28.3562 690.811 L33.8944 690.811 Q30.6797 688.71 29.0883 685.877 Q27.4968 683.013 27.4968 679.289 Q27.4968 673.146 31.3163 669.995 Q35.1038 666.844 42.4881 666.844 Z" fill="#000000" fill-rule="evenodd" fill-opacity="1" /><path clip-path="url(#clip970)" d="M29.4065 632.437 L34.9447 632.437 Q33.6716 634.92 33.035 637.593 Q32.3984 640.267 32.3984 643.131 Q32.3984 647.492 33.7352 649.688 Q35.072 651.852 37.7456 651.852 Q39.7826 651.852 40.9603 650.293 Q42.1061 648.733 43.1565 644.023 L43.6021 642.017 Q44.9389 635.779 47.3897 633.169 Q49.8086 630.527 54.1691 630.527 Q59.1344 630.527 62.0308 634.474 Q64.9272 638.389 64.9272 645.264 Q64.9272 648.128 64.3543 651.248 Q63.8132 654.335 62.6992 657.772 L56.6518 657.772 Q58.3387 654.526 59.198 651.375 Q60.0256 648.224 60.0256 645.137 Q60.0256 640.999 58.6251 638.771 Q57.1929 636.543 54.6147 636.543 Q52.2276 636.543 50.9545 638.166 Q49.6813 639.758 48.5037 645.2 L48.0262 647.237 Q46.8804 652.68 44.5251 655.099 Q42.138 657.518 38.0002 657.518 Q32.9713 657.518 30.2341 653.953 Q27.4968 650.388 27.4968 643.832 Q27.4968 640.585 27.9743 637.721 Q28.4517 634.856 29.4065 632.437 Z" fill="#000000" fill-rule="evenodd" fill-opacity="1" /><path clip-path="url(#clip970)" d="M28.3562 621.202 L28.3562 615.345 L64.0042 615.345 L64.0042 621.202 L28.3562 621.202 M14.479 621.202 L14.479 615.345 L21.895 615.345 L21.895 621.202 L14.479 621.202 Z" fill="#000000" fill-rule="evenodd" fill-opacity="1" /><path clip-path="url(#clip970)" d="M18.2347 597.298 L28.3562 597.298 L28.3562 585.235 L32.9077 585.235 L32.9077 597.298 L52.2594 597.298 Q56.6199 597.298 57.8613 596.121 Q59.1026 594.911 59.1026 591.251 L59.1026 585.235 L64.0042 585.235 L64.0042 591.251 Q64.0042 598.03 61.4897 600.608 Q58.9434 603.187 52.2594 603.187 L32.9077 603.187 L32.9077 607.483 L28.3562 607.483 L28.3562 603.187 L18.2347 603.187 L18.2347 597.298 Z" fill="#000000" fill-rule="evenodd" fill-opacity="1" /><path clip-path="url(#clip970)" d="M67.3143 562.701 Q73.68 565.183 75.6216 567.539 Q77.5631 569.894 77.5631 573.841 L77.5631 578.519 L72.6615 578.519 L72.6615 575.082 Q72.6615 572.663 71.5157 571.326 Q70.3699 569.989 66.1048 568.366 L63.4312 567.316 L28.3562 581.734 L28.3562 575.528 L56.238 564.388 L28.3562 553.248 L28.3562 547.041 L67.3143 562.701 Z" fill="#000000" fill-rule="evenodd" fill-opacity="1" /><path clip-path="url(#clip970)" d="M520.783 18.8205 L520.783 65.8515 L530.667 65.8515 Q543.184 65.8515 548.977 60.1802 Q554.81 54.509 554.81 42.2752 Q554.81 30.1225 548.977 24.4918 Q543.184 18.8205 530.667 18.8205 L520.783 18.8205 M512.6 12.096 L529.411 12.096 Q546.992 12.096 555.215 19.4281 Q563.439 26.7198 563.439 42.2752 Q563.439 57.9117 555.175 65.2439 Q546.911 72.576 529.411 72.576 L512.6 72.576 L512.6 12.096 Z" fill="#000000" fill-rule="evenodd" fill-opacity="1" /><path clip-path="url(#clip970)" d="M614.966 48.0275 L614.966 51.6733 L580.696 51.6733 Q581.182 59.3701 585.314 63.421 Q589.486 67.4314 596.899 67.4314 Q601.193 67.4314 605.204 66.3781 Q609.255 65.3249 613.224 63.2184 L613.224 70.267 Q609.214 71.9684 605.001 72.8596 Q600.788 73.7508 596.454 73.7508 Q585.597 73.7508 579.237 67.4314 Q572.918 61.1119 572.918 50.3365 Q572.918 39.1965 578.913 32.6746 Q584.949 26.1121 595.157 26.1121 Q604.312 26.1121 609.619 32.0264 Q614.966 37.9003 614.966 48.0275 M607.513 45.84 Q607.432 39.7232 604.069 36.0774 Q600.748 32.4315 595.238 32.4315 Q589 32.4315 585.233 35.9558 Q581.506 39.4801 580.939 45.8805 L607.513 45.84 Z" fill="#000000" fill-rule="evenodd" fill-opacity="1" /><path clip-path="url(#clip970)" d="M664.914 45.1919 L664.914 72.576 L657.46 72.576 L657.46 45.4349 Q657.46 38.994 654.949 35.7938 Q652.437 32.5936 647.414 32.5936 Q641.378 32.5936 637.894 36.4419 Q634.411 40.2903 634.411 46.9338 L634.411 72.576 L626.916 72.576 L626.916 27.2059 L634.411 27.2059 L634.411 34.2544 Q637.084 30.163 640.69 28.1376 Q644.335 26.1121 649.075 26.1121 Q656.893 26.1121 660.904 30.9732 Q664.914 35.7938 664.914 45.1919 Z" fill="#000000" fill-rule="evenodd" fill-opacity="1" /><path clip-path="url(#clip970)" d="M708.704 28.5427 L708.704 35.5912 Q705.545 33.9709 702.142 33.1607 Q698.739 32.3505 695.093 32.3505 Q689.543 32.3505 686.748 34.0519 Q683.994 35.7533 683.994 39.156 Q683.994 41.7486 685.979 43.2475 Q687.964 44.7058 693.959 46.0426 L696.511 46.6097 Q704.451 48.3111 707.773 51.4303 Q711.135 54.509 711.135 60.0587 Q711.135 66.3781 706.112 70.0644 Q701.129 73.7508 692.379 73.7508 Q688.733 73.7508 684.763 73.0216 Q680.834 72.3329 676.459 70.9151 L676.459 63.2184 Q680.591 65.3654 684.601 66.4591 Q688.612 67.5124 692.541 67.5124 Q697.807 67.5124 700.643 65.73 Q703.479 63.9071 703.479 60.6258 Q703.479 57.5877 701.413 55.9673 Q699.387 54.3469 692.46 52.8481 L689.868 52.2405 Q682.94 50.7821 679.862 47.7845 Q676.783 44.7463 676.783 39.4801 Q676.783 33.0797 681.32 29.5959 Q685.857 26.1121 694.202 26.1121 Q698.334 26.1121 701.98 26.7198 Q705.626 27.3274 708.704 28.5427 Z" fill="#000000" fill-rule="evenodd" fill-opacity="1" /><path clip-path="url(#clip970)" d="M723.004 27.2059 L730.458 27.2059 L730.458 72.576 L723.004 72.576 L723.004 27.2059 M723.004 9.54393 L730.458 9.54393 L730.458 18.9825 L723.004 18.9825 L723.004 9.54393 Z" fill="#000000" fill-rule="evenodd" fill-opacity="1" /><path clip-path="url(#clip970)" d="M753.426 14.324 L753.426 27.2059 L768.779 27.2059 L768.779 32.9987 L753.426 32.9987 L753.426 57.6282 Q753.426 63.1779 754.925 64.7578 Q756.464 66.3376 761.123 66.3376 L768.779 66.3376 L768.779 72.576 L761.123 72.576 Q752.495 72.576 749.213 69.3758 Q745.932 66.1351 745.932 57.6282 L745.932 32.9987 L740.463 32.9987 L740.463 27.2059 L745.932 27.2059 L745.932 14.324 L753.426 14.324 Z" fill="#000000" fill-rule="evenodd" fill-opacity="1" /><path clip-path="url(#clip970)" d="M797.46 76.7889 Q794.3 84.8907 791.302 87.3618 Q788.304 89.8329 783.281 89.8329 L777.327 89.8329 L777.327 83.5945 L781.702 83.5945 Q784.78 83.5945 786.482 82.1361 Q788.183 80.6778 790.249 75.2496 L791.586 71.8468 L773.235 27.2059 L781.134 27.2059 L795.313 62.6918 L809.491 27.2059 L817.39 27.2059 L797.46 76.7889 Z" fill="#000000" fill-rule="evenodd" fill-opacity="1" /><path clip-path="url(#clip970)" d="M862.558 18.8205 L862.558 41.5461 L872.847 41.5461 Q878.559 41.5461 881.678 38.5889 Q884.797 35.6318 884.797 30.163 Q884.797 24.7348 881.678 21.7777 Q878.559 18.8205 872.847 18.8205 L862.558 18.8205 M854.375 12.096 L872.847 12.096 Q883.015 12.096 888.2 16.714 Q893.425 21.2916 893.425 30.163 Q893.425 39.1155 888.2 43.6931 Q883.015 48.2706 872.847 48.2706 L862.558 48.2706 L862.558 72.576 L854.375 72.576 L854.375 12.096 Z" fill="#000000" fill-rule="evenodd" fill-opacity="1" /><path clip-path="url(#clip970)" d="M904.079 9.54393 L911.533 9.54393 L911.533 72.576 L904.079 72.576 L904.079 9.54393 Z" fill="#000000" fill-rule="evenodd" fill-opacity="1" /><path clip-path="url(#clip970)" d="M944.71 32.4315 Q938.715 32.4315 935.231 37.1306 Q931.747 41.7891 931.747 49.9314 Q931.747 58.0738 935.19 62.7728 Q938.674 67.4314 944.71 67.4314 Q950.665 67.4314 954.149 62.7323 Q957.632 58.0333 957.632 49.9314 Q957.632 41.8701 954.149 37.1711 Q950.665 32.4315 944.71 32.4315 M944.71 26.1121 Q954.432 26.1121 959.982 32.4315 Q965.532 38.7509 965.532 49.9314 Q965.532 61.0714 959.982 67.4314 Q954.432 73.7508 944.71 73.7508 Q934.947 73.7508 929.397 67.4314 Q923.888 61.0714 923.888 49.9314 Q923.888 38.7509 929.397 32.4315 Q934.947 26.1121 944.71 26.1121 Z" fill="#000000" fill-rule="evenodd" fill-opacity="1" /><path clip-path="url(#clip970)" d="M985.259 14.324 L985.259 27.2059 L1000.61 27.2059 L1000.61 32.9987 L985.259 32.9987 L985.259 57.6282 Q985.259 63.1779 986.758 64.7578 Q988.298 66.3376 992.956 66.3376 L1000.61 66.3376 L1000.61 72.576 L992.956 72.576 Q984.328 72.576 981.047 69.3758 Q977.765 66.1351 977.765 57.6282 L977.765 32.9987 L972.297 32.9987 L972.297 27.2059 L977.765 27.2059 L977.765 14.324 L985.259 14.324 Z" fill="#000000" fill-rule="evenodd" fill-opacity="1" /><path clip-path="url(#clip970)" d="M1039.34 28.5427 L1039.34 35.5912 Q1036.18 33.9709 1032.78 33.1607 Q1029.37 32.3505 1025.73 32.3505 Q1020.18 32.3505 1017.38 34.0519 Q1014.63 35.7533 1014.63 39.156 Q1014.63 41.7486 1016.61 43.2475 Q1018.6 44.7058 1024.59 46.0426 L1027.15 46.6097 Q1035.09 48.3111 1038.41 51.4303 Q1041.77 54.509 1041.77 60.0587 Q1041.77 66.3781 1036.75 70.0644 Q1031.76 73.7508 1023.01 73.7508 Q1019.37 73.7508 1015.4 73.0216 Q1011.47 72.3329 1007.09 70.9151 L1007.09 63.2184 Q1011.23 65.3654 1015.24 66.4591 Q1019.25 67.5124 1023.18 67.5124 Q1028.44 67.5124 1031.28 65.73 Q1034.11 63.9071 1034.11 60.6258 Q1034.11 57.5877 1032.05 55.9673 Q1030.02 54.3469 1023.09 52.8481 L1020.5 52.2405 Q1013.58 50.7821 1010.5 47.7845 Q1007.42 44.7463 1007.42 39.4801 Q1007.42 33.0797 1011.95 29.5959 Q1016.49 26.1121 1024.84 26.1121 Q1028.97 26.1121 1032.61 26.7198 Q1036.26 27.3274 1039.34 28.5427 Z" fill="#000000" fill-rule="evenodd" fill-opacity="1" /><path clip-path="url(#clip970)" d="M1097.59 32.4315 Q1091.6 32.4315 1088.11 37.1306 Q1084.63 41.7891 1084.63 49.9314 Q1084.63 58.0738 1088.07 62.7728 Q1091.56 67.4314 1097.59 67.4314 Q1103.55 67.4314 1107.03 62.7323 Q1110.51 58.0333 1110.51 49.9314 Q1110.51 41.8701 1107.03 37.1711 Q1103.55 32.4315 1097.59 32.4315 M1097.59 26.1121 Q1107.31 26.1121 1112.86 32.4315 Q1118.41 38.7509 1118.41 49.9314 Q1118.41 61.0714 1112.86 67.4314 Q1107.31 73.7508 1097.59 73.7508 Q1087.83 73.7508 1082.28 67.4314 Q1076.77 61.0714 1076.77 49.9314 Q1076.77 38.7509 1082.28 32.4315 Q1087.83 26.1121 1097.59 26.1121 Z" fill="#000000" fill-rule="evenodd" fill-opacity="1" /><path clip-path="url(#clip970)" d="M1153.74 9.54393 L1153.74 15.7418 L1146.61 15.7418 Q1142.6 15.7418 1141.02 17.3622 Q1139.48 18.9825 1139.48 23.1955 L1139.48 27.2059 L1151.75 27.2059 L1151.75 32.9987 L1139.48 32.9987 L1139.48 72.576 L1131.98 72.576 L1131.98 32.9987 L1124.85 32.9987 L1124.85 27.2059 L1131.98 27.2059 L1131.98 24.0462 Q1131.98 16.471 1135.51 13.0277 Q1139.03 9.54393 1146.69 9.54393 L1153.74 9.54393 Z" fill="#000000" fill-rule="evenodd" fill-opacity="1" /><path clip-path="url(#clip970)" d="M1186.67 12.096 L1194.85 12.096 L1194.85 72.576 L1186.67 72.576 L1186.67 12.096 Z" fill="#000000" fill-rule="evenodd" fill-opacity="1" /><path clip-path="url(#clip970)" d="M1248.53 45.1919 L1248.53 72.576 L1241.07 72.576 L1241.07 45.4349 Q1241.07 38.994 1238.56 35.7938 Q1236.05 32.5936 1231.03 32.5936 Q1224.99 32.5936 1221.51 36.4419 Q1218.02 40.2903 1218.02 46.9338 L1218.02 72.576 L1210.53 72.576 L1210.53 27.2059 L1218.02 27.2059 L1218.02 34.2544 Q1220.7 30.163 1224.3 28.1376 Q1227.95 26.1121 1232.69 26.1121 Q1240.51 26.1121 1244.52 30.9732 Q1248.53 35.7938 1248.53 45.1919 Z" fill="#000000" fill-rule="evenodd" fill-opacity="1" /><path clip-path="url(#clip970)" d="M1302.2 48.0275 L1302.2 51.6733 L1267.93 51.6733 Q1268.42 59.3701 1272.55 63.421 Q1276.72 67.4314 1284.14 67.4314 Q1288.43 67.4314 1292.44 66.3781 Q1296.49 65.3249 1300.46 63.2184 L1300.46 70.267 Q1296.45 71.9684 1292.24 72.8596 Q1288.02 73.7508 1283.69 73.7508 Q1272.83 73.7508 1266.47 67.4314 Q1260.15 61.1119 1260.15 50.3365 Q1260.15 39.1965 1266.15 32.6746 Q1272.19 26.1121 1282.39 26.1121 Q1291.55 26.1121 1296.86 32.0264 Q1302.2 37.9003 1302.2 48.0275 M1294.75 45.84 Q1294.67 39.7232 1291.31 36.0774 Q1287.98 32.4315 1282.47 32.4315 Q1276.24 32.4315 1272.47 35.9558 Q1268.74 39.4801 1268.17 45.8805 L1294.75 45.84 Z" fill="#000000" fill-rule="evenodd" fill-opacity="1" /><path clip-path="url(#clip970)" d="M1340.73 34.1734 Q1339.47 33.4443 1337.97 33.1202 Q1336.51 32.7556 1334.73 32.7556 Q1328.41 32.7556 1325.01 36.8875 Q1321.65 40.9789 1321.65 48.6757 L1321.65 72.576 L1314.15 72.576 L1314.15 27.2059 L1321.65 27.2059 L1321.65 34.2544 Q1324 30.1225 1327.76 28.1376 Q1331.53 26.1121 1336.92 26.1121 Q1337.69 26.1121 1338.62 26.2337 Q1339.55 26.3147 1340.69 26.5172 L1340.73 34.1734 Z" fill="#000000" fill-rule="evenodd" fill-opacity="1" /><path clip-path="url(#clip970)" d="M1355.92 14.324 L1355.92 27.2059 L1371.27 27.2059 L1371.27 32.9987 L1355.92 32.9987 L1355.92 57.6282 Q1355.92 63.1779 1357.42 64.7578 Q1358.96 66.3376 1363.61 66.3376 L1371.27 66.3376 L1371.27 72.576 L1363.61 72.576 Q1354.99 72.576 1351.7 69.3758 Q1348.42 66.1351 1348.42 57.6282 L1348.42 32.9987 L1342.95 32.9987 L1342.95 27.2059 L1348.42 27.2059 L1348.42 14.324 L1355.92 14.324 Z" fill="#000000" fill-rule="evenodd" fill-opacity="1" /><path clip-path="url(#clip970)" d="M1381.07 27.2059 L1388.53 27.2059 L1388.53 72.576 L1381.07 72.576 L1381.07 27.2059 M1381.07 9.54393 L1388.53 9.54393 L1388.53 18.9825 L1381.07 18.9825 L1381.07 9.54393 Z" fill="#000000" fill-rule="evenodd" fill-opacity="1" /><path clip-path="url(#clip970)" d="M1424.74 49.7694 Q1415.71 49.7694 1412.22 51.8354 Q1408.74 53.9013 1408.74 58.8839 Q1408.74 62.8538 1411.33 65.2034 Q1413.97 67.5124 1418.46 67.5124 Q1424.66 67.5124 1428.39 63.1374 Q1432.16 58.7219 1432.16 51.4303 L1432.16 49.7694 L1424.74 49.7694 M1439.61 46.6907 L1439.61 72.576 L1432.16 72.576 L1432.16 65.6895 Q1429.6 69.8214 1425.8 71.8063 Q1421.99 73.7508 1416.48 73.7508 Q1409.51 73.7508 1405.38 69.8619 Q1401.29 65.9325 1401.29 59.3701 Q1401.29 51.7138 1406.39 47.825 Q1411.54 43.9361 1421.7 43.9361 L1432.16 43.9361 L1432.16 43.2069 Q1432.16 38.0623 1428.75 35.2672 Q1425.39 32.4315 1419.27 32.4315 Q1415.38 32.4315 1411.7 33.3632 Q1408.01 34.295 1404.61 36.1584 L1404.61 29.2718 Q1408.7 27.692 1412.55 26.9223 Q1416.4 26.1121 1420.04 26.1121 Q1429.89 26.1121 1434.75 31.2163 Q1439.61 36.3204 1439.61 46.6907 Z" fill="#000000" fill-rule="evenodd" fill-opacity="1" /><path clip-path="url(#clip970)" d="M1454.96 9.54393 L1462.42 9.54393 L1462.42 72.576 L1454.96 72.576 L1454.96 9.54393 Z" fill="#000000" fill-rule="evenodd" fill-opacity="1" /><path clip-path="url(#clip970)" d="M1550 16.7545 L1550 25.383 Q1545.86 21.5346 1541.17 19.6307 Q1536.51 17.7268 1531.24 17.7268 Q1520.87 17.7268 1515.36 24.0867 Q1509.85 30.4061 1509.85 42.3968 Q1509.85 54.3469 1515.36 60.7069 Q1520.87 67.0263 1531.24 67.0263 Q1536.51 67.0263 1541.17 65.1223 Q1545.86 63.2184 1550 59.3701 L1550 67.9175 Q1545.7 70.8341 1540.88 72.2924 Q1536.1 73.7508 1530.75 73.7508 Q1517.02 73.7508 1509.12 65.3654 Q1501.22 56.9395 1501.22 42.3968 Q1501.22 27.8135 1509.12 19.4281 Q1517.02 11.0023 1530.75 11.0023 Q1536.18 11.0023 1540.96 12.4606 Q1545.78 13.8784 1550 16.7545 Z" fill="#000000" fill-rule="evenodd" fill-opacity="1" /><path clip-path="url(#clip970)" d="M1579.89 32.4315 Q1573.9 32.4315 1570.41 37.1306 Q1566.93 41.7891 1566.93 49.9314 Q1566.93 58.0738 1570.37 62.7728 Q1573.86 67.4314 1579.89 67.4314 Q1585.85 67.4314 1589.33 62.7323 Q1592.81 58.0333 1592.81 49.9314 Q1592.81 41.8701 1589.33 37.1711 Q1585.85 32.4315 1579.89 32.4315 M1579.89 26.1121 Q1589.61 26.1121 1595.16 32.4315 Q1600.71 38.7509 1600.71 49.9314 Q1600.71 61.0714 1595.16 67.4314 Q1589.61 73.7508 1579.89 73.7508 Q1570.13 73.7508 1564.58 67.4314 Q1559.07 61.0714 1559.07 49.9314 Q1559.07 38.7509 1564.58 32.4315 Q1570.13 26.1121 1579.89 26.1121 Z" fill="#000000" fill-rule="evenodd" fill-opacity="1" /><path clip-path="url(#clip970)" d="M1641.99 28.5427 L1641.99 35.5912 Q1638.83 33.9709 1635.43 33.1607 Q1632.03 32.3505 1628.38 32.3505 Q1622.83 32.3505 1620.04 34.0519 Q1617.28 35.7533 1617.28 39.156 Q1617.28 41.7486 1619.27 43.2475 Q1621.25 44.7058 1627.25 46.0426 L1629.8 46.6097 Q1637.74 48.3111 1641.06 51.4303 Q1644.42 54.509 1644.42 60.0587 Q1644.42 66.3781 1639.4 70.0644 Q1634.42 73.7508 1625.67 73.7508 Q1622.02 73.7508 1618.05 73.0216 Q1614.12 72.3329 1609.75 70.9151 L1609.75 63.2184 Q1613.88 65.3654 1617.89 66.4591 Q1621.9 67.5124 1625.83 67.5124 Q1631.1 67.5124 1633.93 65.73 Q1636.77 63.9071 1636.77 60.6258 Q1636.77 57.5877 1634.7 55.9673 Q1632.67 54.3469 1625.75 52.8481 L1623.16 52.2405 Q1616.23 50.7821 1613.15 47.7845 Q1610.07 44.7463 1610.07 39.4801 Q1610.07 33.0797 1614.61 29.5959 Q1619.14 26.1121 1627.49 26.1121 Q1631.62 26.1121 1635.27 26.7198 Q1638.91 27.3274 1641.99 28.5427 Z" fill="#000000" fill-rule="evenodd" fill-opacity="1" /><path clip-path="url(#clip970)" d="M1663.66 14.324 L1663.66 27.2059 L1679.02 27.2059 L1679.02 32.9987 L1663.66 32.9987 L1663.66 57.6282 Q1663.66 63.1779 1665.16 64.7578 Q1666.7 66.3376 1671.36 66.3376 L1679.02 66.3376 L1679.02 72.576 L1671.36 72.576 Q1662.73 72.576 1659.45 69.3758 Q1656.17 66.1351 1656.17 57.6282 L1656.17 32.9987 L1650.7 32.9987 L1650.7 27.2059 L1656.17 27.2059 L1656.17 14.324 L1663.66 14.324 Z" fill="#000000" fill-rule="evenodd" fill-opacity="1" /><path clip-path="url(#clip970)" d="M1717.74 28.5427 L1717.74 35.5912 Q1714.58 33.9709 1711.18 33.1607 Q1707.78 32.3505 1704.13 32.3505 Q1698.58 32.3505 1695.79 34.0519 Q1693.03 35.7533 1693.03 39.156 Q1693.03 41.7486 1695.02 43.2475 Q1697 44.7058 1703 46.0426 L1705.55 46.6097 Q1713.49 48.3111 1716.81 51.4303 Q1720.17 54.509 1720.17 60.0587 Q1720.17 66.3781 1715.15 70.0644 Q1710.17 73.7508 1701.42 73.7508 Q1697.77 73.7508 1693.8 73.0216 Q1689.87 72.3329 1685.5 70.9151 L1685.5 63.2184 Q1689.63 65.3654 1693.64 66.4591 Q1697.65 67.5124 1701.58 67.5124 Q1706.85 67.5124 1709.68 65.73 Q1712.52 63.9071 1712.52 60.6258 Q1712.52 57.5877 1710.45 55.9673 Q1708.43 54.3469 1701.5 52.8481 L1698.91 52.2405 Q1691.98 50.7821 1688.9 47.7845 Q1685.82 44.7463 1685.82 39.4801 Q1685.82 33.0797 1690.36 29.5959 Q1694.9 26.1121 1703.24 26.1121 Q1707.37 26.1121 1711.02 26.7198 Q1714.67 27.3274 1717.74 28.5427 Z" fill="#000000" fill-rule="evenodd" fill-opacity="1" /><path clip-path="url(#clip970)" d="M1733.95 62.2867 L1742.49 62.2867 L1742.49 69.2543 L1735.85 82.2172 L1730.63 82.2172 L1733.95 69.2543 L1733.95 62.2867 Z" fill="#000000" fill-rule="evenodd" fill-opacity="1" /><path clip-path="url(#clip970)" d="M1817.36 49.9314 Q1817.36 41.7081 1813.95 37.0496 Q1810.59 32.3505 1804.68 32.3505 Q1798.76 32.3505 1795.36 37.0496 Q1792 41.7081 1792 49.9314 Q1792 58.1548 1795.36 62.8538 Q1798.76 67.5124 1804.68 67.5124 Q1810.59 67.5124 1813.95 62.8538 Q1817.36 58.1548 1817.36 49.9314 M1792 34.0924 Q1794.35 30.0415 1797.91 28.0971 Q1801.52 26.1121 1806.5 26.1121 Q1814.76 26.1121 1819.91 32.6746 Q1825.09 39.2371 1825.09 49.9314 Q1825.09 60.6258 1819.91 67.1883 Q1814.76 73.7508 1806.5 73.7508 Q1801.52 73.7508 1797.91 71.8063 Q1794.35 69.8214 1792 65.7705 L1792 72.576 L1784.5 72.576 L1784.5 9.54393 L1792 9.54393 L1792 34.0924 Z" fill="#000000" fill-rule="evenodd" fill-opacity="1" /><path clip-path="url(#clip970)" d="M1856.33 76.7889 Q1853.17 84.8907 1850.17 87.3618 Q1847.17 89.8329 1842.15 89.8329 L1836.19 89.8329 L1836.19 83.5945 L1840.57 83.5945 Q1843.65 83.5945 1845.35 82.1361 Q1847.05 80.6778 1849.11 75.2496 L1850.45 71.8468 L1832.1 27.2059 L1840 27.2059 L1854.18 62.6918 L1868.36 27.2059 L1876.26 27.2059 L1856.33 76.7889 Z" fill="#000000" fill-rule="evenodd" fill-opacity="1" /><path clip-path="url(#clip970)" d="M1931.79 76.7889 Q1928.63 84.8907 1925.64 87.3618 Q1922.64 89.8329 1917.62 89.8329 L1911.66 89.8329 L1911.66 83.5945 L1916.04 83.5945 Q1919.11 83.5945 1920.82 82.1361 Q1922.52 80.6778 1924.58 75.2496 L1925.92 71.8468 L1907.57 27.2059 L1915.47 27.2059 L1929.65 62.6918 L1943.82 27.2059 L1951.72 27.2059 L1931.79 76.7889 Z" fill="#000000" fill-rule="evenodd" fill-opacity="1" /><path clip-path="url(#clip970)" d="M2000.82 48.0275 L2000.82 51.6733 L1966.55 51.6733 Q1967.04 59.3701 1971.17 63.421 Q1975.34 67.4314 1982.75 67.4314 Q1987.05 67.4314 1991.06 66.3781 Q1995.11 65.3249 1999.08 63.2184 L1999.08 70.267 Q1995.07 71.9684 1990.86 72.8596 Q1986.64 73.7508 1982.31 73.7508 Q1971.45 73.7508 1965.09 67.4314 Q1958.77 61.1119 1958.77 50.3365 Q1958.77 39.1965 1964.77 32.6746 Q1970.8 26.1121 1981.01 26.1121 Q1990.17 26.1121 1995.47 32.0264 Q2000.82 37.9003 2000.82 48.0275 M1993.37 45.84 Q1993.29 39.7232 1989.92 36.0774 Q1986.6 32.4315 1981.09 32.4315 Q1974.85 32.4315 1971.09 35.9558 Q1967.36 39.4801 1966.79 45.8805 L1993.37 45.84 Z" fill="#000000" fill-rule="evenodd" fill-opacity="1" /><path clip-path="url(#clip970)" d="M2033.67 49.7694 Q2024.64 49.7694 2021.16 51.8354 Q2017.67 53.9013 2017.67 58.8839 Q2017.67 62.8538 2020.27 65.2034 Q2022.9 67.5124 2027.4 67.5124 Q2033.59 67.5124 2037.32 63.1374 Q2041.09 58.7219 2041.09 51.4303 L2041.09 49.7694 L2033.67 49.7694 M2048.54 46.6907 L2048.54 72.576 L2041.09 72.576 L2041.09 65.6895 Q2038.54 69.8214 2034.73 71.8063 Q2030.92 73.7508 2025.41 73.7508 Q2018.44 73.7508 2014.31 69.8619 Q2010.22 65.9325 2010.22 59.3701 Q2010.22 51.7138 2015.32 47.825 Q2020.47 43.9361 2030.64 43.9361 L2041.09 43.9361 L2041.09 43.2069 Q2041.09 38.0623 2037.68 35.2672 Q2034.32 32.4315 2028.21 32.4315 Q2024.32 32.4315 2020.63 33.3632 Q2016.94 34.295 2013.54 36.1584 L2013.54 29.2718 Q2017.63 27.692 2021.48 26.9223 Q2025.33 26.1121 2028.97 26.1121 Q2038.82 26.1121 2043.68 31.2163 Q2048.54 36.3204 2048.54 46.6907 Z" fill="#000000" fill-rule="evenodd" fill-opacity="1" /><path clip-path="url(#clip970)" d="M2090.18 34.1734 Q2088.93 33.4443 2087.43 33.1202 Q2085.97 32.7556 2084.19 32.7556 Q2077.87 32.7556 2074.47 36.8875 Q2071.1 40.9789 2071.1 48.6757 L2071.1 72.576 L2063.61 72.576 L2063.61 27.2059 L2071.1 27.2059 L2071.1 34.2544 Q2073.45 30.1225 2077.22 28.1376 Q2080.99 26.1121 2086.38 26.1121 Q2087.15 26.1121 2088.08 26.2337 Q2089.01 26.3147 2090.14 26.5172 L2090.18 34.1734 Z" fill="#000000" fill-rule="evenodd" fill-opacity="1" /><polyline clip-path="url(#clip972)" style="stroke:#009af9; stroke-linecap:butt; stroke-linejoin:round; stroke-width:4; stroke-opacity:1; fill:none" points="
  309.539,1386.37 319.508,1386.34 329.476,1386.27 339.444,1386.15 349.413,1385.93 359.381,1385.53 369.35,1384.87 379.318,1383.79 389.286,1382.11 399.255,1379.61 
  409.223,1376.01 419.191,1371.06 429.16,1364.51 439.128,1356.24 449.096,1346.21 459.065,1334.62 469.033,1321.83 479.002,1308.42 488.97,1295.12 498.938,1282.74 
  508.907,1272.04 518.875,1263.62 528.843,1257.84 538.812,1254.72 548.78,1253.87 558.749,1254.55 568.717,1255.68 578.685,1255.93 588.654,1253.81 598.622,1247.89 
  608.59,1236.89 618.559,1219.95 628.527,1196.72 638.495,1167.54 648.464,1133.45 658.432,1096.14 668.401,1057.78 678.369,1020.72 688.337,987.229 698.306,959.128 
  708.274,937.588 718.242,922.976 728.211,914.837 738.179,911.973 748.148,912.598 758.116,914.521 768.084,915.355 778.053,912.725 788.021,904.487 797.989,888.963 
  807.958,865.152 817.926,832.911 827.894,793.024 837.863,747.137 847.831,697.536 857.8,646.8 867.768,597.414 877.736,551.42 887.705,510.209 897.673,474.499 
  907.641,444.474 917.61,420.019 927.578,400.95 937.547,387.155 947.515,378.585 957.483,375.134 967.452,376.452 977.42,381.787 987.388,389.931 997.357,399.278 
  1007.33,407.994 1017.29,414.225 1027.26,416.288 1037.23,412.819 1047.2,402.859 1057.17,385.93 1067.14,362.122 1077.1,332.205 1087.07,297.739 1097.04,261.126 
  1107.01,225.513 1116.98,194.514 1126.95,171.76 1136.91,160.342 1146.88,162.271 1156.85,178.098 1166.82,206.774 1176.79,245.79 1186.76,291.556 1196.72,339.923 
  1206.69,386.726 1216.66,428.271 1226.63,461.698 1236.6,485.217 1246.57,498.226 1256.53,501.338 1266.5,496.308 1276.47,485.871 1286.44,473.452 1296.41,462.763 
  1306.38,457.325 1316.34,459.978 1326.31,472.467 1336.28,495.209 1346.25,527.262 1356.22,566.522 1366.19,610.076 1376.15,654.643 1386.12,696.998 1396.09,734.322 
  1406.06,764.445 1416.03,785.99 1426,798.444 1435.97,802.167 1445.93,798.379 1455.9,789.077 1465.87,776.886 1475.84,764.816 1485.81,755.933 1495.78,752.984 
  1505.74,758.037 1515.71,772.197 1525.68,795.469 1535.65,826.785 1545.62,864.181 1555.59,905.087 1565.55,946.668 1575.52,986.164 1585.49,1021.19 1595.46,1049.94 
  1605.43,1071.37 1615.4,1085.26 1625.36,1092.19 1635.33,1093.47 1645.3,1090.99 1655.27,1086.96 1665.24,1083.62 1675.21,1083.01 1685.17,1086.61 1695.14,1095.27 
  1705.11,1109.07 1715.08,1127.41 1725.05,1149.12 1735.02,1172.71 1744.98,1196.57 1754.95,1219.19 1764.92,1239.29 1774.89,1256 1784.86,1268.83 1794.83,1277.75 
  1804.79,1283.09 1814.76,1285.53 1824.73,1285.97 1834.7,1285.43 1844.67,1284.91 1854.64,1285.26 1864.6,1287.12 1874.57,1290.83 1884.54,1296.41 1894.51,1303.64 
  1904.48,1312.07 1914.45,1321.18 1924.42,1330.42 1934.38,1339.31 1944.35,1347.46 1954.32,1354.62 1964.29,1360.67 1974.26,1365.56 1984.23,1369.34 1994.19,1372.11 
  2004.16,1373.99 2014.13,1375.14 2024.1,1375.72 2034.07,1375.9 2044.04,1375.83 2054,1375.68 2063.97,1375.58 2073.94,1375.63 2083.91,1375.9 2093.88,1376.43 
  2103.85,1377.19 2113.81,1378.16 2123.78,1379.25 2133.75,1380.41 2143.72,1381.54 2153.69,1382.59 2163.66,1383.52 2173.62,1384.3 2183.59,1384.92 2193.56,1385.39 
  2203.53,1385.74 2213.5,1385.98 2223.47,1386.15 2233.43,1386.25 2243.4,1386.32 2253.37,1386.36 2263.34,1386.38 2273.31,1386.39 2283.28,1386.39 2293.24,1386.39 
  
  "/>
<polyline clip-path="url(#clip972)" style="stroke:#e26f46; stroke-linecap:butt; stroke-linejoin:round; stroke-width:4; stroke-opacity:1; fill:none" points="
  309.539,1386.37 319.508,1386.33 329.476,1386.26 339.444,1386.13 349.413,1385.88 359.381,1385.45 369.35,1384.72 379.318,1383.55 389.286,1381.73 399.255,1379.02 
  409.223,1375.13 419.191,1369.81 429.16,1362.8 439.128,1353.99 449.096,1343.39 459.065,1331.23 469.033,1317.96 479.002,1304.24 488.97,1290.87 498.938,1278.72 
  508.907,1268.56 518.875,1260.99 528.843,1256.28 538.812,1254.34 548.78,1254.66 558.749,1256.33 568.717,1258.14 578.685,1258.65 588.654,1256.34 598.622,1249.76 
  608.59,1237.72 618.559,1219.44 628.527,1194.75 638.495,1164.14 648.464,1128.85 658.432,1090.73 668.401,1052.1 678.369,1015.4 688.337,982.882 698.306,956.318 
  708.274,936.728 718.242,924.284 728.211,918.316 738.179,917.434 748.148,919.717 758.116,922.923 768.084,924.692 778.053,922.74 788.021,915.037 797.989,899.99 
  807.958,876.613 817.926,844.668 827.894,804.733 837.863,758.162 847.831,706.916 857.8,653.295 867.768,599.631 877.736,548.003 887.705,500.081 897.673,457.082 
  907.641,419.868 917.61,389.079 927.578,365.245 937.547,348.796 947.515,339.955 957.483,338.565 967.452,343.909 977.42,354.628 987.388,368.786 997.357,384.064 
  1007.33,398.057 1017.29,408.558 1027.26,413.766 1037.23,412.39 1047.2,403.664 1057.17,387.331 1067.14,363.671 1077.1,333.589 1087.07,298.744 1097.04,261.628 
  1107.01,225.507 1116.98,194.146 1126.95,171.33 1136.91,160.256 1146.88,162.944 1156.85,179.826 1166.82,209.622 1176.79,249.546 1186.76,295.768 1196.72,344.018 
  1206.69,390.191 1216.66,430.817 1226.63,463.379 1236.6,486.447 1246.57,499.696 1256.53,503.858 1266.5,500.626 1276.47,492.509 1286.44,482.612 1296.41,474.318 
  1306.38,470.875 1316.34,474.957 1326.31,488.251 1336.28,511.206 1346.25,542.959 1356.22,581.496 1366.19,623.975 1376.15,667.152 1386.12,707.809 1396.09,743.118 
  1406.06,770.904 1416.03,789.813 1426,799.4 1435.97,800.16 1445.93,793.514 1455.9,781.719 1465.87,767.686 1475.84,754.697 1485.81,746.016 1495.78,744.466 
  1505.74,752.034 1515.71,769.586 1525.68,796.759 1535.65,832.045 1545.62,873.04 1555.59,916.809 1565.55,960.278 1575.52,1000.6 1585.49,1035.44 1595.46,1063.16 
  1605.43,1082.94 1615.4,1094.8 1625.36,1099.53 1635.33,1098.63 1645.3,1094.11 1655.27,1088.29 1665.24,1083.5 1675.21,1081.82 1685.17,1084.81 1695.14,1093.31 
  1705.11,1107.4 1715.08,1126.42 1725.05,1149.11 1735.02,1173.85 1744.98,1198.89 1754.95,1222.59 1764.92,1243.58 1774.89,1260.92 1784.86,1274.13 1794.83,1283.18 
  1804.79,1288.44 1814.76,1290.62 1824.73,1290.62 1834.7,1289.47 1844.67,1288.15 1854.64,1287.54 1864.6,1288.29 1874.57,1290.78 1884.54,1295.12 1894.51,1301.17 
  1904.48,1308.59 1914.45,1316.9 1924.42,1325.6 1934.38,1334.19 1944.35,1342.27 1954.32,1349.5 1964.29,1355.71 1974.26,1360.81 1984.23,1364.82 1994.19,1367.83 
  2004.16,1370 2014.13,1371.53 2024.1,1372.6 2034.07,1373.41 2044.04,1374.11 2054,1374.83 2063.97,1375.64 2073.94,1376.56 2083.91,1377.6 2093.88,1378.72 
  2103.85,1379.86 2113.81,1380.99 2123.78,1382.04 2133.75,1382.98 2143.72,1383.8 2153.69,1384.48 2163.66,1385.02 2173.62,1385.44 2183.59,1385.75 2193.56,1385.98 
  2203.53,1386.13 2213.5,1386.24 2223.47,1386.3 2233.43,1386.35 2243.4,1386.37 2253.37,1386.39 2263.34,1386.39 2273.31,1386.4 2283.28,1386.39 2293.24,1386.39 
  
  "/>
<path clip-path="url(#clip970)" d="
M320.119 322.316 L699.542 322.316 L699.542 166.796 L320.119 166.796  Z
  " fill="#ffffff" fill-rule="evenodd" fill-opacity="1"/>
<polyline clip-path="url(#clip970)" style="stroke:#000000; stroke-linecap:butt; stroke-linejoin:round; stroke-width:4; stroke-opacity:1; fill:none" points="
  320.119,322.316 699.542,322.316 699.542,166.796 320.119,166.796 320.119,322.316 
  "/>
<polyline clip-path="url(#clip970)" style="stroke:#009af9; stroke-linecap:butt; stroke-linejoin:round; stroke-width:4; stroke-opacity:1; fill:none" points="
  343.483,218.636 483.665,218.636 
  "/>
<path clip-path="url(#clip970)" d="M520.871 238.323 Q519.065 242.953 517.352 244.365 Q515.639 245.777 512.769 245.777 L509.366 245.777 L509.366 242.212 L511.866 242.212 Q513.625 242.212 514.598 241.379 Q515.57 240.545 516.75 237.443 L517.514 235.499 L507.028 209.99 L511.542 209.99 L519.644 230.268 L527.746 209.99 L532.26 209.99 L520.871 238.323 Z" fill="#000000" fill-rule="evenodd" fill-opacity="1" /><path clip-path="url(#clip970)" d="M560.315 221.888 L560.315 223.971 L540.732 223.971 Q541.01 228.369 543.371 230.684 Q545.755 232.976 549.991 232.976 Q552.445 232.976 554.736 232.374 Q557.051 231.772 559.32 230.569 L559.32 234.596 Q557.028 235.568 554.621 236.078 Q552.213 236.587 549.736 236.587 Q543.533 236.587 539.898 232.976 Q536.287 229.365 536.287 223.207 Q536.287 216.842 539.713 213.115 Q543.162 209.365 548.996 209.365 Q554.227 209.365 557.259 212.745 Q560.315 216.101 560.315 221.888 M556.056 220.638 Q556.009 217.143 554.088 215.059 Q552.19 212.976 549.042 212.976 Q545.477 212.976 543.324 214.99 Q541.195 217.004 540.871 220.661 L556.056 220.638 Z" fill="#000000" fill-rule="evenodd" fill-opacity="1" /><path clip-path="url(#clip970)" d="M579.088 222.883 Q573.926 222.883 571.935 224.064 Q569.945 225.244 569.945 228.092 Q569.945 230.36 571.426 231.703 Q572.931 233.022 575.5 233.022 Q579.042 233.022 581.171 230.522 Q583.324 227.999 583.324 223.832 L583.324 222.883 L579.088 222.883 M587.583 221.124 L587.583 235.916 L583.324 235.916 L583.324 231.981 Q581.866 234.342 579.69 235.476 Q577.514 236.587 574.366 236.587 Q570.384 236.587 568.023 234.365 Q565.685 232.119 565.685 228.369 Q565.685 223.994 568.602 221.772 Q571.542 219.55 577.352 219.55 L583.324 219.55 L583.324 219.133 Q583.324 216.194 581.38 214.596 Q579.458 212.976 575.963 212.976 Q573.741 212.976 571.634 213.508 Q569.528 214.041 567.583 215.106 L567.583 211.17 Q569.921 210.268 572.12 209.828 Q574.32 209.365 576.403 209.365 Q582.028 209.365 584.806 212.282 Q587.583 215.198 587.583 221.124 Z" fill="#000000" fill-rule="evenodd" fill-opacity="1" /><path clip-path="url(#clip970)" d="M611.379 213.971 Q610.662 213.555 609.805 213.37 Q608.972 213.161 607.954 213.161 Q604.342 213.161 602.398 215.522 Q600.477 217.86 600.477 222.258 L600.477 235.916 L596.194 235.916 L596.194 209.99 L600.477 209.99 L600.477 214.018 Q601.819 211.657 603.972 210.522 Q606.125 209.365 609.204 209.365 Q609.643 209.365 610.176 209.434 Q610.708 209.481 611.356 209.596 L611.379 213.971 Z" fill="#000000" fill-rule="evenodd" fill-opacity="1" /><path clip-path="url(#clip970)" d="M635.546 231.981 L651.865 231.981 L651.865 235.916 L629.921 235.916 L629.921 231.981 Q632.583 229.226 637.166 224.596 Q641.773 219.944 642.953 218.601 Q645.199 216.078 646.078 214.342 Q646.981 212.583 646.981 210.893 Q646.981 208.138 645.037 206.402 Q643.115 204.666 640.014 204.666 Q637.815 204.666 635.361 205.43 Q632.93 206.194 630.153 207.745 L630.153 203.022 Q632.977 201.888 635.43 201.309 Q637.884 200.731 639.921 200.731 Q645.291 200.731 648.486 203.416 Q651.68 206.101 651.68 210.592 Q651.68 212.721 650.87 214.643 Q650.083 216.541 647.977 219.133 Q647.398 219.805 644.296 223.022 Q641.194 226.217 635.546 231.981 Z" fill="#000000" fill-rule="evenodd" fill-opacity="1" /><polyline clip-path="url(#clip970)" style="stroke:#e26f46; stroke-linecap:butt; stroke-linejoin:round; stroke-width:4; stroke-opacity:1; fill:none" points="
  343.483,270.476 483.665,270.476 
  "/>
<path clip-path="url(#clip970)" d="M520.871 290.163 Q519.065 294.793 517.352 296.205 Q515.639 297.617 512.769 297.617 L509.366 297.617 L509.366 294.052 L511.866 294.052 Q513.625 294.052 514.598 293.219 Q515.57 292.385 516.75 289.283 L517.514 287.339 L507.028 261.83 L511.542 261.83 L519.644 282.108 L527.746 261.83 L532.26 261.83 L520.871 290.163 Z" fill="#000000" fill-rule="evenodd" fill-opacity="1" /><path clip-path="url(#clip970)" d="M560.315 273.728 L560.315 275.811 L540.732 275.811 Q541.01 280.209 543.371 282.524 Q545.755 284.816 549.991 284.816 Q552.445 284.816 554.736 284.214 Q557.051 283.612 559.32 282.409 L559.32 286.436 Q557.028 287.408 554.621 287.918 Q552.213 288.427 549.736 288.427 Q543.533 288.427 539.898 284.816 Q536.287 281.205 536.287 275.047 Q536.287 268.682 539.713 264.955 Q543.162 261.205 548.996 261.205 Q554.227 261.205 557.259 264.585 Q560.315 267.941 560.315 273.728 M556.056 272.478 Q556.009 268.983 554.088 266.899 Q552.19 264.816 549.042 264.816 Q545.477 264.816 543.324 266.83 Q541.195 268.844 540.871 272.501 L556.056 272.478 Z" fill="#000000" fill-rule="evenodd" fill-opacity="1" /><path clip-path="url(#clip970)" d="M579.088 274.723 Q573.926 274.723 571.935 275.904 Q569.945 277.084 569.945 279.932 Q569.945 282.2 571.426 283.543 Q572.931 284.862 575.5 284.862 Q579.042 284.862 581.171 282.362 Q583.324 279.839 583.324 275.672 L583.324 274.723 L579.088 274.723 M587.583 272.964 L587.583 287.756 L583.324 287.756 L583.324 283.821 Q581.866 286.182 579.69 287.316 Q577.514 288.427 574.366 288.427 Q570.384 288.427 568.023 286.205 Q565.685 283.959 565.685 280.209 Q565.685 275.834 568.602 273.612 Q571.542 271.39 577.352 271.39 L583.324 271.39 L583.324 270.973 Q583.324 268.034 581.38 266.436 Q579.458 264.816 575.963 264.816 Q573.741 264.816 571.634 265.348 Q569.528 265.881 567.583 266.946 L567.583 263.01 Q569.921 262.108 572.12 261.668 Q574.32 261.205 576.403 261.205 Q582.028 261.205 584.806 264.122 Q587.583 267.038 587.583 272.964 Z" fill="#000000" fill-rule="evenodd" fill-opacity="1" /><path clip-path="url(#clip970)" d="M611.379 265.811 Q610.662 265.395 609.805 265.21 Q608.972 265.001 607.954 265.001 Q604.342 265.001 602.398 267.362 Q600.477 269.7 600.477 274.098 L600.477 287.756 L596.194 287.756 L596.194 261.83 L600.477 261.83 L600.477 265.858 Q601.819 263.497 603.972 262.362 Q606.125 261.205 609.204 261.205 Q609.643 261.205 610.176 261.274 Q610.708 261.321 611.356 261.436 L611.379 265.811 Z" fill="#000000" fill-rule="evenodd" fill-opacity="1" /><path clip-path="url(#clip970)" d="M645.685 269.122 Q649.041 269.839 650.916 272.108 Q652.814 274.376 652.814 277.709 Q652.814 282.825 649.296 285.626 Q645.777 288.427 639.296 288.427 Q637.12 288.427 634.805 287.987 Q632.514 287.571 630.06 286.714 L630.06 282.2 Q632.004 283.334 634.319 283.913 Q636.634 284.492 639.157 284.492 Q643.555 284.492 645.847 282.756 Q648.162 281.02 648.162 277.709 Q648.162 274.654 646.009 272.941 Q643.879 271.205 640.06 271.205 L636.032 271.205 L636.032 267.362 L640.245 267.362 Q643.694 267.362 645.523 265.997 Q647.352 264.608 647.352 262.015 Q647.352 259.353 645.453 257.941 Q643.578 256.506 640.06 256.506 Q638.139 256.506 635.94 256.923 Q633.74 257.339 631.102 258.219 L631.102 254.052 Q633.764 253.311 636.078 252.941 Q638.416 252.571 640.477 252.571 Q645.801 252.571 648.902 255.001 Q652.004 257.409 652.004 261.529 Q652.004 264.399 650.361 266.39 Q648.717 268.358 645.685 269.122 Z" fill="#000000" fill-rule="evenodd" fill-opacity="1" /></svg>
